<?xml version="1.0" standalone="no"?>
<!DOCTYPE svg PUBLIC "-//W3C//DTD SVG 1.1//EN" "http://www.w3.org/Graphics/SVG/1.1/DTD/svg11.dtd" >
<svg xmlns="http://www.w3.org/2000/svg">
<metadata></metadata>
<defs>
<font id="SpringsteelLigRegular" horiz-adv-x="1003" >
<font-face units-per-em="2048" ascent="1536" descent="-512" />
<missing-glyph horiz-adv-x="512" />
<glyph unicode="&#xfb01;" horiz-adv-x="903" d="M16 963v61q103 20 236 20q0 70 3.5 124t13.5 107.5t27 91.5t44 71.5t64.5 54t89 32t116.5 11.5q45 0 86 -5t60 -10l18 -5v-62q-72 10 -164 10q-150 0 -203 -92t-53 -328q96 0 201 -5t162 -10l57 -5v-1024h-82q-20 410 -20 737q0 181 2 226h-320v-963h-82q-20 404 -20 731 v232h-236z" />
<glyph unicode="&#xfb02;" horiz-adv-x="944" d="M16 963v61q103 20 236 20q0 70 3.5 124t13.5 107.5t27 91.5t44 71.5t64.5 54t89 32t116.5 11.5h215q-10 -452 -10 -799v-737h-82q-20 410 -20 737q0 340 16 727h-119q-150 0 -203 -92t-53 -328q59 0 118 -5t88 -10l30 -5v-61h-236v-963h-82q-20 404 -20 731v232h-236z " />
<glyph unicode="&#xfb03;" horiz-adv-x="1343" d="M16 963v61q103 20 236 20q0 99 7.5 167.5t30 130t62 97.5t103.5 56.5t155 20.5v-72q-152 0 -204 -83.5t-52 -316.5h338q0 100 8 170t30.5 134.5t61.5 103.5t103.5 61.5t155.5 22.5q45 0 86 -5t59 -10l18 -5v-62q-71 10 -163 10q-150 0 -203 -92t-53 -328q96 0 200.5 -5 t161.5 -10l57 -5v-1024h-81q-21 410 -21 737q0 181 2 226h-319v-963h-82q-21 404 -21 731v232h-338v-963h-82q-20 404 -20 731v232h-236z" />
<glyph unicode="&#xfb04;" horiz-adv-x="1384" d="M16 963v61q103 20 236 20q0 99 7.5 167.5t30 130t62 97.5t103.5 56.5t155 20.5v-72q-152 0 -204 -83.5t-52 -316.5h338q0 100 8 170t30.5 134.5t61.5 103.5t103.5 61.5t155.5 22.5h215q-11 -452 -11 -799v-737h-81q-21 410 -21 737q0 340 16 727h-118q-150 0 -203 -92 t-53 -328q59 0 118 -5t88 -10l29 -5v-61h-235v-963h-82q-21 404 -21 731v232h-338v-963h-82q-20 404 -20 731v232h-236z" />
<glyph horiz-adv-x="0" />
<glyph horiz-adv-x="2048" />
<glyph unicode=" "  horiz-adv-x="512" />
<glyph unicode="&#x09;" horiz-adv-x="512" />
<glyph unicode="&#xa0;" horiz-adv-x="512" />
<glyph unicode="!" horiz-adv-x="454" d="M154 61q0 31 20 51.5t51 20.5t51.5 -20.5t20.5 -51.5t-20.5 -51t-51.5 -20t-51 20t-20 51zM174 307v410q0 146 5 325t11 286l5 106h92q-11 -390 -11 -717v-410h-102z" />
<glyph unicode="&#x22;" horiz-adv-x="575" d="M109 1044q0 73 5 170.5t10 158.5l5 61h92q-10 -226 -10 -390h-102zM354 1044q0 73 5 170.5t11 158.5l5 61h92q-10 -226 -10 -390h-103z" />
<glyph unicode="#" horiz-adv-x="1425" d="M98 440v72h338v410h-338v71h338q3 105 8 215t9 168l4 58h92q-10 -205 -10 -441h348q3 105 8 215t9 168l3 58h92q-10 -205 -10 -441h338v-71h-338v-410h338v-72h-338q0 -250 10 -440h-92q-14 204 -20 440h-348q0 -250 10 -440h-92q-15 204 -21 440h-338zM539 512h348v410 h-348v-410z" />
<glyph unicode="$" horiz-adv-x="1071" d="M90 983q0 59 11 110.5t39.5 102.5t73 88t118 61t168.5 27q0 36 2.5 77t5.5 64l2 23h82q-10 -82 -10 -164q60 -3 118 -14.5t98 -26t71 -28.5t46 -23l15 -10v-72q-6 4 -17 10t-49 22t-80 28t-108 22t-135 10q-66 0 -119 -10t-89 -25.5t-62 -40.5t-41 -50t-23.5 -58 t-11 -60.5t-2.5 -62.5q0 -57 14.5 -97.5t51.5 -75.5t106.5 -57.5t175.5 -35.5q173 -20 272 -64t138.5 -111t39.5 -173q0 -369 -409 -389q0 -27 -3 -73.5t-5 -78.5l-3 -33h-82q11 93 11 185q-72 3 -138.5 14.5t-110 26t-77 28.5t-48.5 23l-15 10v82q7 -4 19.5 -11t55 -25 t89 -31.5t119.5 -24.5t147 -11q77 0 135.5 12t95.5 35.5t61.5 50.5t36 65t15.5 70.5t4 74.5q0 76 -27 120.5t-103 76t-218 48.5q-129 15 -217 45.5t-139 78t-73 106.5t-22 139z" />
<glyph unicode="%" horiz-adv-x="1069" d="M63 1208q0 116 73 181t173 65t173 -65t73 -181t-73 -180.5t-173 -64.5t-173 64.5t-73 180.5zM104 0l758 1434h103l-758 -1434h-103zM145 1208q0 -75 46.5 -119.5t117.5 -44.5t117.5 44.5t46.5 119.5t-46.5 119.5t-117.5 44.5t-117.5 -44.5t-46.5 -119.5zM514 225 q0 116 73 181t173 65t173 -65t73 -181t-73 -180.5t-173 -64.5t-173 64.5t-73 180.5zM596 225q0 -75 46.5 -119.5t117.5 -44.5t117.5 44.5t46.5 119.5t-46.5 119.5t-117.5 44.5t-117.5 -44.5t-46.5 -119.5z" />
<glyph unicode="&#x26;" horiz-adv-x="1304" d="M72 410q0 80 22.5 143t65 106.5t91.5 73t114 53.5q-170 178 -170 320q0 77 20.5 138.5t64.5 109.5t118 74t175 26q379 0 379 -328q0 -65 -23.5 -119.5t-61 -93.5t-94.5 -72.5t-112 -55t-126 -42.5l434 -434q68 142 106 408h103q-19 -107 -31 -165t-41.5 -151t-67.5 -159 l242 -242h-133l-162 162q-147 -182 -412 -182q-115 0 -204.5 25.5t-144.5 67t-90 99t-48.5 115.5t-13.5 123zM174 410q0 -52 6.5 -93.5t30.5 -92t65 -84t117 -56.5t180 -23q225 0 347 166l-486 488q-122 -43 -191 -114t-69 -191zM297 1106q0 -123 164 -287l41 10 q64 18 108 33t93 40.5t78.5 54.5t49 72.5t19.5 96.5q0 117 -62.5 181.5t-214.5 64.5q-151 0 -213.5 -71t-62.5 -195z" />
<glyph unicode="'" horiz-adv-x="329" d="M109 1044q0 73 5 170.5t10 158.5l5 61h92q-10 -226 -10 -390h-102z" />
<glyph unicode="(" horiz-adv-x="489" d="M102 614q0 134 14.5 257t38.5 213t52 167.5t56.5 128.5t52.5 87.5t38 52.5l15 16h82q-5 -6 -14 -17t-34.5 -51.5t-48.5 -88t-51.5 -127.5t-49 -168.5t-34.5 -212t-14 -257.5t13.5 -257t35.5 -212.5t48 -167t52 -128.5t48 -87.5t36 -52.5l13 -16h-82q-11 11 -29 33 t-64 103t-81 177.5t-64 260.5t-29 347z" />
<glyph unicode=")" horiz-adv-x="489" d="M39 -307q10 11 26.5 33t59 103t75 177.5t59 260.5t26.5 347q0 134 -13.5 257t-35.5 213t-48 167.5t-52 128.5t-48 87.5t-36 52.5l-13 16h82q6 -6 15.5 -17t37 -51.5t52.5 -88t56 -127.5t53 -168.5t37 -212t15 -257.5t-14.5 -257t-38 -212.5t-52 -167t-57 -128.5 t-52 -87.5t-37.5 -52.5l-15 -16h-82z" />
<glyph unicode="*" horiz-adv-x="811" d="M78 1141v41q109 12 250 22l-105 230l37 20q64 -86 146 -205q34 53 69.5 104t54.5 76l19 25l37 -20q-46 -103 -105 -230l252 -22v-41q-109 -17 -254 -27l109 -225l-37 -21q-67 88 -145 205q-36 -54 -73 -105t-56 -76l-19 -24l-37 21q42 104 105 225q-62 4 -124 11t-93 11z " />
<glyph unicode="+" horiz-adv-x="1228" d="M102 584v82h461q0 137 2.5 257.5t4.5 172.5l3 51h93v-481h460v-82h-460v-482h-93q-10 182 -10 482h-461z" />
<glyph unicode="," horiz-adv-x="346" d="M102 -287q21 246 21 410h102q0 -73 -10.5 -175.5t-20.5 -168.5l-10 -66h-82z" />
<glyph unicode="-" horiz-adv-x="704" d="M106 584v82h492v-82h-492z" />
<glyph unicode="." horiz-adv-x="360" d="M109 61q0 29 21 50.5t50 21.5t50.5 -21.5t21.5 -50.5t-21.5 -50t-50.5 -21t-50 21t-21 50z" />
<glyph unicode="/" horiz-adv-x="587" d="M8 -164l459 1700h102l-458 -1700h-103z" />
<glyph unicode="0" horiz-adv-x="1269" d="M123 717q0 71 0.5 109t5 109t13 113t26.5 104t43 99t64 80.5t89 67t119 39.5t152 16t152 -16t119 -39.5t89 -67t64 -80.5t43 -99t26.5 -104t13 -113t5 -109t0.5 -109t-0.5 -109t-5 -109t-13 -113t-26.5 -104t-43 -99t-64 -80.5t-89 -67t-119 -39.5t-152 -16t-152 16 t-119 39.5t-89 67t-64 80.5t-43 99t-26.5 104t-13 113t-5 109t-0.5 109zM225 717q0 -98 1 -147t8.5 -132t22.5 -126t44.5 -99.5t72.5 -84t109 -47.5t152 -20q67 0 121.5 12t95 29.5t71.5 52.5t51 63.5t34 82.5t21 89.5t10.5 103.5t4 106t0.5 114v3q0 236 -17 336 q-34 198 -164 270q-88 49 -228 49q-86 0 -152 -20t-109 -47.5t-72.5 -84t-44.5 -99.5t-22.5 -126t-8.5 -131.5t-1 -146.5z" />
<glyph unicode="1" horiz-adv-x="546" d="M55 1260v71q40 0 80 10.5t68.5 25.5t51.5 30.5t35 26.5l11 10h82q-10 -411 -10 -717q0 -136 2.5 -315.5t4.5 -290.5l3 -111h-82q-20 411 -20 717t12 600q-109 -57 -238 -57z" />
<glyph unicode="2" horiz-adv-x="1118" d="M104 348q0 117 38 189t136 121t277 79q93 16 160 41t107 55t63 71.5t31 83t8 97.5q0 42 -4.5 73.5t-18.5 67t-41.5 60t-70.5 45t-110 31t-155 10.5q-96 0 -190.5 -23t-141.5 -46l-47 -23v72q6 4 17 11t48.5 24.5t78.5 31t105 24.5t130 11q119 0 208.5 -19.5t144.5 -52 t89.5 -81t47 -100.5t12.5 -116q0 -87 -24 -155.5t-79 -127t-152 -100t-236 -65.5q-65 -11 -114.5 -25t-84.5 -29t-59 -35.5t-37.5 -39.5t-21 -47t-9.5 -52t-2 -61v-287h328q107 0 219.5 2.5t171.5 5.5l59 3v-72q-206 -20 -450 -20q-89 0 -191.5 5t-160.5 10l-58 5 q-21 133 -21 348z" />
<glyph unicode="3" horiz-adv-x="1128" d="M84 82v82q7 -4 19.5 -11t54.5 -25t87.5 -31.5t116 -24.5t142.5 -11q101 0 175 18.5t116 47t67.5 71t33 82t7.5 89.5q0 135 -88.5 216t-279.5 91l-185 10v72h185q368 0 368 315q0 35 -3.5 64t-14.5 60.5t-29 56t-49 47.5t-72 38t-99.5 24t-131.5 9q-105 0 -199.5 -23 t-136.5 -46l-43 -23v72q6 4 17 11t48.5 24.5t78.5 31t105 24.5t130 11q502 0 502 -381q0 -122 -53 -209t-173 -147q121 -61 173.5 -143.5t52.5 -204.5q0 -389 -502 -389q-72 0 -141.5 10.5t-117.5 25.5t-86 30t-57 26z" />
<glyph unicode="4" horiz-adv-x="1181" d="M61 584q37 222 180 717q42 145 42 133h92q-129 -417 -195 -766h635q0 164 5.5 355.5t10.5 300.5l5 110h90q-8 -398 -8 -766h204v-84h-204q0 -129 2 -275t4 -227l2 -82h-90q-15 294 -23 584h-752z" />
<glyph unicode="5" horiz-adv-x="1132" d="M131 82v82q7 -4 19.5 -11t54.5 -25t87.5 -31.5t116 -24.5t142.5 -11q104 0 180 22t117 54t65 80.5t30.5 89t6.5 92.5q0 308 -379 308h-440q0 141 5.5 322.5t10.5 292.5l5 112q178 20 399 20q97 0 197 -5t151 -10l51 -5v-72q-178 10 -399 10h-318v-594q143 10 338 10 q246 0 364 -105.5t118 -283.5q0 -64 -13.5 -121t-49 -113t-90 -96t-144.5 -64.5t-205 -24.5q-72 0 -141.5 10.5t-117.5 25.5t-86 30t-56 26z" />
<glyph unicode="6" horiz-adv-x="1185" d="M121 717q0 69 1.5 117.5t6.5 115t15 114t28.5 103.5t44.5 95t65 78t88 62t116 37.5t147 14.5q100 0 192 -18t134 -36l42 -18v-71q-16 7 -46 17t-126 27t-196 17q-63 0 -115 -10.5t-91 -28.5t-70 -47t-52.5 -60t-36.5 -74.5t-23.5 -83t-13.5 -92.5t-6.5 -96.5t-1.5 -101.5 q205 10 410 10q471 0 471 -399q0 -60 -12 -114.5t-45 -109.5t-84 -95t-136 -65t-194 -25q-83 0 -152 16.5t-119 40t-89 67.5t-64 81.5t-43 99t-26.5 103.5t-13 113t-5 108.5t-0.5 107.5zM223 707q0 -90 1.5 -143t9.5 -130.5t24 -123.5t45.5 -99t72.5 -82t108 -48.5 t149 -19.5q88 0 155.5 21t107 53t64 77t33 87.5t8.5 89.5q0 318 -368 318h-410z" />
<glyph unicode="7" horiz-adv-x="1101" d="M82 1362v72q225 20 450 20q100 0 233.5 -5t216.5 -10l83 -5q-283 -472 -447 -758q-73 -128 -159.5 -297t-136.5 -274l-50 -105h-108q229 472 393 758q73 128 164 281.5t146 242.5l55 90h-390q-100 0 -212.5 -2.5t-175.5 -5.5z" />
<glyph unicode="8" horiz-adv-x="1249" d="M113 369q0 125 64.5 209t201.5 133q-246 91 -246 374q0 74 23 136t76 116.5t153 85.5t240 31q113 0 200 -21t141 -55.5t88.5 -83.5t48 -99.5t13.5 -109.5q0 -132 -56 -219.5t-190 -142.5q135 -42 201 -133t66 -221q0 -65 -14.5 -119.5t-51 -105.5t-93.5 -86.5t-147 -56.5 t-206 -21t-206 21t-147 56.5t-93.5 86.5t-51 105.5t-14.5 119.5zM215 369q0 -47 9 -87t35.5 -82.5t70.5 -71.5t119.5 -48t175.5 -19t175.5 19t119 48t70.5 71.5t35.5 82t8.5 87.5q0 286 -430 307l-41 2q-348 -45 -348 -309zM236 1085q0 -73 18.5 -127t62.5 -98t126 -69.5 t202 -32.5l37 -2q81 11 141.5 35t96 55t57.5 72.5t29.5 80.5t7.5 86q0 58 -18.5 106t-60 90.5t-121 66.5t-189.5 24t-189.5 -24t-121 -66.5t-60 -90.5t-18.5 -106z" />
<glyph unicode="9" horiz-adv-x="1185" d="M82 1024q0 61 11 116.5t43.5 114.5t84 101.5t139.5 70t203 27.5q89 0 160 -16.5t123.5 -46.5t90.5 -79t62.5 -106.5t39.5 -136.5t20.5 -162.5t5.5 -189.5q0 -89 -2.5 -151.5t-13.5 -145.5t-31 -140t-57.5 -118t-89.5 -98t-130.5 -60.5t-177.5 -23.5q-66 0 -129.5 8.5 t-106.5 20t-77 23.5t-50 20l-16 9v72q16 -8 46.5 -20t129 -32t203.5 -20q80 0 143 20t104.5 50t71.5 79.5t45 94.5t23.5 110t10.5 110t2 110q-205 -10 -410 -10q-125 0 -218 32t-147 88.5t-80 126t-26 152.5zM184 1024q0 -65 18 -118.5t58 -100t115 -72.5t178 -26h410 q0 72 -1 122t-5.5 112.5t-13 105.5t-23 91.5t-35 80.5t-50.5 63.5t-68.5 49.5t-90 29t-113.5 11q-97 0 -169 -23t-111 -57.5t-62.5 -84t-30 -91.5t-6.5 -92z" />
<glyph unicode=":" horiz-adv-x="466" d="M162 61q0 31 20 51.5t51 20.5t51.5 -20.5t20.5 -51.5t-20.5 -51t-51.5 -20t-51 20t-20 51zM162 727q0 31 20 51.5t51 20.5t51.5 -20.5t20.5 -51.5t-20.5 -51.5t-51.5 -20.5t-51 20.5t-20 51.5z" />
<glyph unicode=";" horiz-adv-x="460" d="M160 -287q20 246 20 410h103q0 -73 -10.5 -175.5t-20.5 -168.5l-10 -66h-82zM160 727q0 31 20 51.5t51 20.5t51.5 -20.5t20.5 -51.5t-20.5 -51.5t-51.5 -20.5t-51 20.5t-20 51.5z" />
<glyph unicode="&#x3c;" horiz-adv-x="1228" d="M102 553q0 18 3 33.5t5 21.5l3 6q236 144 583 328q54 28 151 74t167 78l71 32v-92q-225 -104 -389 -186q-91 -45 -221.5 -119t-215.5 -125l-85 -51q317 -193 522 -295q73 -36 170 -82.5t158 -75.5l61 -28v-92q-268 121 -389 184q-155 82 -300.5 164t-213.5 123l-69 41 q-11 20 -11 61z" />
<glyph unicode="=" horiz-adv-x="1228" d="M102 410v82h1024v-82h-1024zM102 758v82h1024v-82h-1024z" />
<glyph unicode="&#x3e;" horiz-adv-x="1228" d="M141 -20v92q225 104 389 186q91 45 222 119t216 125l85 51q-318 193 -523 295q-73 36 -170 82.5t-158 75.5l-61 28v92q268 -121 389 -184q155 -82 301 -164t215 -123l68 -41q10 -20 10 -61q0 -18 -2.5 -33.5t-5.5 -21.5l-2 -6q-237 -144 -584 -328q-54 -28 -151 -74 t-167 -78z" />
<glyph unicode="?" horiz-adv-x="997" d="M53 1280v72q6 4 17 11t48.5 24.5t78.5 31t105 24.5t130 11q119 0 208.5 -21.5t144.5 -57t89.5 -87t47 -105t12.5 -118.5q0 -151 -76.5 -244.5t-271.5 -152.5q-55 -16 -92 -37t-59.5 -44.5t-34.5 -58.5t-15.5 -70t-3.5 -89v-62h-102v62q0 54 4 92.5t20.5 86.5t46 83t84 69 t131.5 58q81 26 135 58t82 72.5t38.5 81.5t10.5 95q0 49 -8.5 90t-34.5 82.5t-69 70t-116 46.5t-171 18q-105 0 -199.5 -23t-136.5 -46zM258 61q0 31 20.5 51.5t51.5 20.5t51 -20.5t20 -51.5t-20 -51t-51 -20t-51.5 20t-20.5 51z" />
<glyph unicode="@" horiz-adv-x="1622" d="M96 717q0 375 185 556t532 181q337 0 527 -164t190 -450q0 -263 -118 -398t-312 -135h-287q-56 0 -106.5 12t-99.5 42t-84.5 75.5t-57 117.5t-21.5 163t21.5 163t57 117.5t84.5 75t99.5 41.5t106.5 12q64 0 128 -5t96 -10l32 -5q10 -258 10 -389q0 -75 -3.5 -157 t-7.5 -126l-3 -45h35q157 0 242 112.5t85 338.5q0 126 -47 227.5t-129.5 168t-194.5 101.5t-243 35q-142 0 -252.5 -36.5t-192.5 -113.5t-125.5 -204.5t-43.5 -300.5q0 -146 29 -258.5t80.5 -187t129 -122t169.5 -68t206 -20.5q191 0 350 13t222 26l63 13v-72 q-21 -7 -64 -17t-207 -27t-364 -17q-139 0 -248 23.5t-198.5 77t-148.5 138t-90.5 209.5t-31.5 289zM547 717q0 -328 266 -328h162v655h-162q-43 0 -79 -8t-72 -30t-60.5 -57t-39.5 -94.5t-15 -137.5z" />
<glyph unicode="A" horiz-adv-x="1204" d="M121 553q0 90 2 153t9 153.5t22.5 161.5t40.5 148t66 144t95 121q82 20 236 20q68 0 132 -5t94 -10l30 -5q54 -54 95 -121t66 -144t40.5 -148t22.5 -161.5t9 -153.5t2 -153q0 -116 -5 -254t-10 -219l-5 -80h-82v645h-758v-645h-82q-20 294 -20 553zM223 727h758 q-8 224 -50 373.5t-134 271.5h-389q-92 -123 -134.5 -272.5t-50.5 -372.5z" />
<glyph unicode="B" horiz-adv-x="1171" d="M141 717q0 143 5.5 322.5t10.5 286.5l5 108q147 20 399 20q116 0 204.5 -20t144 -54t90.5 -84.5t49 -106t14 -124.5q0 -61 -19 -115.5t-47.5 -91.5t-64.5 -66.5t-67 -45t-58 -23.5q35 -8 78.5 -34.5t89.5 -68.5t77 -108.5t31 -142.5q0 -68 -14.5 -124t-50 -106.5 t-91.5 -84.5t-143.5 -54t-201.5 -20t-219 5t-153 10l-48 5q-21 396 -21 717zM244 676q0 -91 3.5 -245t6.5 -262l4 -108h324q115 0 196.5 23t126.5 66.5t64.5 96.5t19.5 122q0 130 -109 218.5t-278 88.5h-358zM244 758h358q158 0 258.5 88.5t100.5 218.5q0 57 -9 99.5 t-34.5 83.5t-69 67t-116 41.5t-171.5 15.5h-317v-614z" />
<glyph unicode="C" horiz-adv-x="1073" d="M94 717q0 89 4.5 160.5t18.5 150.5t37 139t63 116t94 92t131.5 57.5t173.5 21.5q72 0 139.5 -9.5t112.5 -23t80 -27t52 -22.5l16 -10v-72l-17 8.5t-50 20t-82 25t-111 19.5t-140 9q-77 0 -139 -19t-105.5 -51t-75.5 -81.5t-50.5 -102.5t-30 -123t-15 -134t-3.5 -144 t3.5 -144t15 -134t30 -123.5t50.5 -103t75.5 -81.5t105.5 -51t139 -19t147 8.5t114 20.5t77 24t48 20l14 9v-71q-6 -4 -17 -10t-50 -22t-82 -28t-111 -22t-140 -10q-91 0 -164.5 18.5t-127.5 52t-94 84.5t-66 111t-41.5 137.5t-22 157t-6.5 176.5z" />
<glyph unicode="D" horiz-adv-x="1196" d="M141 717q0 143 5.5 322.5t10.5 286.5l5 108q138 20 409 20q81 0 149.5 -15.5t119.5 -41.5t91.5 -66t67.5 -82t47 -98t31 -105t17.5 -111.5t8 -110t1.5 -107.5q0 -59 -1.5 -106.5t-8 -110t-17.5 -111.5t-31 -105t-47 -98t-67.5 -82.5t-91.5 -66.5t-119.5 -41.5 t-149.5 -15.5q-121 0 -223 5t-144 10l-42 5q-21 396 -21 717zM244 717l8 -656h319q64 0 117.5 11.5t94 31.5t73 51.5t55 66.5t39 82t26.5 91.5t15.5 102t7.5 107.5t2 112q0 81 -3.5 144t-14 134t-29 123t-51 102.5t-77 82t-109.5 50.5t-146 19h-327v-655z" />
<glyph unicode="E" horiz-adv-x="1052" d="M141 717q0 143 5.5 322.5t10.5 286.5l5 108q194 20 409 20q96 0 198.5 -5t156.5 -10l55 -5v-72q-193 10 -410 10h-327v-614h655v-82h-655q0 -118 3 -272t6 -248l3 -95h315q96 0 198.5 2.5t156.5 5.5l55 3v-72q-195 -20 -410 -20q-86 0 -188 5t-161 10l-60 5 q-21 394 -21 717z" />
<glyph unicode="F" horiz-adv-x="1024" d="M141 717q0 143 5.5 322.5t10.5 286.5l5 108q194 20 409 20q96 0 198.5 -5t156.5 -10l55 -5v-72q-193 10 -410 10h-327v-614h655v-82h-655q0 -146 2.5 -315t5.5 -265l2 -96h-92q-21 396 -21 717z" />
<glyph unicode="G" horiz-adv-x="1196" d="M94 717q0 62 1.5 107.5t7 109.5t15.5 112t29.5 105t46.5 98t67.5 82t91.5 66.5t121 41t153 15.5q74 0 146 -10.5t121 -25.5t87.5 -30t56.5 -26l19 -10v-72q-21 10 -58 25.5t-150 41t-222 25.5q-81 0 -146 -19t-109.5 -50.5t-77 -82t-51 -102.5t-29 -123t-14 -134 t-3.5 -144q0 -62 2 -112t7.5 -107.5t15.5 -102t26.5 -91.5t39 -82t55 -66.5t73 -51.5t94 -31.5t117.5 -11.5q82 0 174 10.5t143 20.5l51 10v574h-327v82h430q0 -164 -5 -338t-11 -266l-5 -93q-21 -9 -58.5 -22.5t-155.5 -36t-236 -22.5q-106 0 -190.5 26t-139.5 65.5 t-94.5 103.5t-60 122t-32 141t-14 140.5t-2.5 138.5z" />
<glyph unicode="H" horiz-adv-x="1263" d="M141 717q0 136 5.5 315.5t10.5 290.5l5 111h92q-10 -401 -10 -676h778q0 123 -2.5 292t-5.5 276l-2 108h92q20 -411 20 -717q0 -136 -5 -315.5t-10 -290.5l-5 -111h-82v676h-778q0 -132 2.5 -301t5.5 -272l2 -103h-92q-21 411 -21 717z" />
<glyph unicode="I" horiz-adv-x="395" d="M141 717q0 143 5.5 322.5t10.5 286.5l5 108h92q-10 -396 -10 -717q0 -143 2.5 -322.5t5.5 -286.5l2 -108h-92q-21 396 -21 717z" />
<glyph unicode="J" horiz-adv-x="505" d="M16 -20v71q143 0 199.5 66.5t56.5 210.5q0 58 -5 182t-5 207q0 143 5 322.5t11 286.5l5 108h92q-10 -396 -10 -717v-389q0 -88 -16 -149.5t-55 -108t-107.5 -68.5t-170.5 -22z" />
<glyph unicode="K" horiz-adv-x="1087" d="M141 717q0 143 5.5 322.5t10.5 286.5l5 108h92q-10 -380 -10 -717l262 250q64 60 175 177t190 203l79 87h133q-1 -1 -139 -146.5t-313.5 -324t-255.5 -246.5q50 -42 140.5 -130.5t185 -186t181.5 -188.5t143.5 -151t57.5 -61h-133q-299 334 -442 469l-264 248 q0 -150 2.5 -329.5t5.5 -283.5l2 -104h-92q-21 396 -21 717z" />
<glyph unicode="L" horiz-adv-x="991" d="M141 717q0 143 5.5 322.5t10.5 286.5l5 108h92q-10 -396 -10 -717l10 -656h317q96 0 198.5 2.5t156.5 5.5l55 3v-72q-195 -20 -410 -20q-94 0 -196 5t-157 10l-56 5q-21 396 -21 717z" />
<glyph unicode="M" horiz-adv-x="1570" d="M141 717q0 136 5.5 315.5t10.5 290.5l5 111h129q159 -405 270 -691q22 -57 78 -217.5t101 -291.5l46 -132q177 514 226 641l270 691h129q21 -411 21 -717q0 -136 -5 -315.5t-11 -290.5l-5 -111h-82v1311l-231 -623l-250 -688h-123q-141 398 -250 688l-231 623v-594 q0 -136 2.5 -315.5t5.5 -290.5l2 -111h-92q-21 411 -21 717z" />
<glyph unicode="N" horiz-adv-x="1286" d="M141 717q0 143 5.5 322.5t10.5 286.5l5 108h123q37 -59 374 -649.5t383 -661.5v594q0 143 -2.5 322.5t-4.5 286.5l-3 108h92q21 -396 21 -717q0 -143 -5 -322.5t-11 -286.5l-5 -108h-123q-37 59 -374 649.5t-383 661.5v-594q0 -143 2.5 -322.5t5.5 -286.5l2 -108h-92 q-21 396 -21 717z" />
<glyph unicode="O" horiz-adv-x="1236" d="M96 717q0 81 2.5 138.5t13.5 140.5t31 141t59 122.5t93 103.5t136.5 65t186.5 26q82 0 150 -16t118.5 -41t90.5 -66.5t66 -82.5t45 -98t29 -105t15.5 -112t7 -109t1.5 -107t-1.5 -107t-7 -109t-15.5 -112t-29 -105t-45 -98t-66 -82.5t-90.5 -66.5t-118.5 -41t-150 -16 q-104 0 -186.5 26t-136.5 65t-93 103.5t-59 122.5t-31 141t-13.5 140.5t-2.5 138.5zM199 717q0 -62 2 -112t7.5 -107.5t15 -102t25.5 -91.5t38 -82t54 -66.5t71.5 -51.5t91.5 -31.5t114 -11.5q79 0 142.5 19t107 51t75 82t49.5 102.5t28.5 123.5t14 134t3.5 144 q0 62 -2 112.5t-7.5 107t-15 101.5t-26 91.5t-38.5 81.5t-53.5 66.5t-71.5 51.5t-92 31.5t-114 11.5q-79 0 -142.5 -19t-106.5 -50.5t-74.5 -82t-50 -102.5t-29 -123t-13.5 -134t-3 -144z" />
<glyph unicode="P" horiz-adv-x="1110" d="M141 717q0 136 5.5 315.5t10.5 290.5l5 111q204 20 450 20q226 0 338.5 -107t112.5 -303q0 -198 -113 -308.5t-338 -110.5h-368l10 -625h-92q-21 411 -21 717zM244 707h368q168 0 258.5 87.5t90.5 249.5q0 161 -90 244.5t-259 83.5h-368v-665z" />
<glyph unicode="Q" horiz-adv-x="1236" d="M96 717q0 81 2.5 138.5t13.5 140.5t31 141t59 122.5t93 103.5t136.5 65t186.5 26q82 0 150 -16t118.5 -41t90.5 -66.5t66 -82.5t45 -98t29 -105t15.5 -112t7 -109t1.5 -107q0 -60 -1.5 -104.5t-6.5 -106.5t-14.5 -109.5t-27 -102.5t-42 -97.5t-61.5 -82t-83 -67.5 l154 -211h-103l-129 176q-91 -32 -209 -32q-104 0 -186.5 26t-136.5 65t-93 103.5t-59 122.5t-31 141t-13.5 140.5t-2.5 138.5zM199 717q0 -62 2 -112t7.5 -107.5t15 -102t25.5 -91.5t38 -82t54 -66.5t71.5 -51.5t91.5 -31.5t114 -11.5q82 0 156 23l-145 203h102l121 -166 q59 38 98 100t57 146t24.5 163.5t6.5 186.5q0 62 -2 112.5t-7.5 107t-15 101.5t-26 91.5t-38.5 81.5t-53.5 66.5t-71.5 51.5t-92 31.5t-114 11.5q-79 0 -142.5 -19t-106.5 -50.5t-74.5 -82t-50 -102.5t-29 -123t-13.5 -134t-3 -144z" />
<glyph unicode="R" horiz-adv-x="1148" d="M141 717q0 136 5.5 315.5t10.5 290.5l5 111q204 20 450 20q215 0 333 -102t118 -287q0 -173 -93.5 -284t-275.5 -132q63 -85 119.5 -167.5t90 -134.5t104 -163.5t116.5 -183.5h-123q-82 136 -184 297.5t-163 254.5l-62 93h-348l10 -645h-92q-21 411 -21 717zM244 727h368 q166 0 257.5 91t91.5 247q0 151 -92 229t-257 78h-368v-645z" />
<glyph unicode="S" horiz-adv-x="1093" d="M70 1085q0 77 26 140.5t83 116.5t159.5 82.5t243.5 29.5q63 0 124 -9.5t103.5 -23t75.5 -27t49 -22.5l16 -10v-72l-17 8.5t-47.5 20t-76.5 25t-102 19.5t-125 9q-101 0 -176 -16t-119 -42t-70.5 -65t-35.5 -77.5t-9 -86.5q0 -67 18 -118.5t61 -94.5t120.5 -69.5 t189.5 -34.5q132 -10 225 -43t146 -88t76.5 -123t23.5 -156q0 -76 -27 -141.5t-83.5 -120t-154 -85.5t-226.5 -31q-74 0 -146 10.5t-121 25.5t-87.5 30t-56.5 26l-19 10v82q7 -4 21 -11t59 -25t92.5 -31.5t118 -24.5t139.5 -11q103 0 181 26t122 69.5t65 94t21 107.5 q0 70 -15 119t-54 90.5t-113 66t-187 32.5q-132 11 -229 47t-153 92.5t-82.5 126t-26.5 153.5z" />
<glyph unicode="T" horiz-adv-x="999" d="M8 1372v62q267 20 492 20q100 0 223 -5t195 -10l73 -5v-72q-264 10 -450 10v-655q0 -136 5 -315.5t10 -290.5l5 -111h-102q-21 411 -21 717q0 389 11 655h-441z" />
<glyph unicode="U" horiz-adv-x="1257" d="M127 717q0 143 5 322.5t10 286.5l5 108h82v-717q0 -57 1 -96.5t5 -98t11.5 -100t21.5 -93t34 -87.5t50.5 -72.5t69 -58.5t91.5 -36t116 -14q81 0 144.5 20t105 49.5t70.5 83.5t44.5 101.5t23.5 125t9.5 132t1.5 144.5v717h82q20 -396 20 -717q0 -65 -1 -106.5t-6 -108.5 t-13.5 -112.5t-26.5 -104.5t-42.5 -99t-63 -82t-87 -67t-115 -41t-146.5 -16q-90 0 -163 18t-123.5 55t-88.5 78t-60.5 103.5t-37 113t-20.5 126t-7.5 123t-1.5 120.5z" />
<glyph unicode="V" horiz-adv-x="1130" d="M12 1434h107q115 -415 215 -697l231 -645l232 645q44 126 98 300t85 285l32 112h106q-174 -570 -225 -717q-46 -135 -112.5 -314t-110.5 -291l-43 -112q-31 -10 -62 -10q-14 0 -29 2.5t-24 5.5l-8 2q-162 415 -266 717q-23 65 -79.5 244.5t-101.5 326.5z" />
<glyph unicode="W" horiz-adv-x="2002" d="M18 1434h107q107 -433 201 -717l204 -625l205 625q42 127 93 306t82 295l30 116q30 10 61 10q14 0 29.5 -2.5t23.5 -5.5l9 -2q111 -433 205 -717l205 -625l204 625q42 127 92 306t79 295l30 116h107q-158 -567 -205 -717q-43 -136 -104.5 -315t-101.5 -290l-40 -112 q-30 -10 -61 -10q-14 0 -29.5 2.5t-23.5 5.5l-9 2q-150 413 -246 717q-38 114 -164 573q-19 -65 -55.5 -196.5t-65 -232t-42.5 -144.5q-43 -136 -104.5 -315t-101.5 -290l-40 -112q-31 -10 -62 -10q-14 0 -29 2.5t-23 5.5l-9 2q-150 413 -246 717q-21 67 -72 246t-92 325z " />
<glyph unicode="X" horiz-adv-x="1040" d="M8 0q28 50 75 131t167.5 276.5t210.5 323.5q-88 128 -196 304t-172 287l-64 112h112q21 -38 57 -102t136 -228.5t186 -288.5q84 124 179 279t147 248l53 92h113q-235 -415 -432 -703q89 -128 202 -311t182 -302l68 -118h-112q-23 41 -61.5 109t-144.5 239.5t-194 298.5 q-88 -127 -188 -288.5t-156 -260.5l-55 -98h-113z" />
<glyph unicode="Y" horiz-adv-x="1034" d="M8 1434h113q41 -94 157.5 -293t241.5 -373q125 174 242 373.5t158 292.5h112q-35 -87 -180.5 -330t-280.5 -428q-1 -134 -6 -303t-9 -271l-5 -102h-92q8 376 10 676q-135 185 -280.5 428t-180.5 330z" />
<glyph unicode="Z" horiz-adv-x="1032" d="M14 0q33 76 193.5 335.5t277.5 422.5q96 136 209 315.5t180 298.5h-358q-105 0 -215 -2.5t-167 -5.5l-58 -2v72q200 20 440 20q105 0 230.5 -5t198.5 -10l73 -5q-32 -77 -192.5 -335t-278.5 -423q-101 -142 -214 -320.5t-175 -294.5h338q106 0 221 2.5t177 5.5l62 3v-72 q-224 -20 -460 -20q-96 0 -216.5 5t-193.5 10z" />
<glyph unicode="[" horiz-adv-x="487" d="M145 614q0 146 7.5 371.5t15.5 378.5l8 152q175 20 318 20v-82h-236q-10 -513 -10 -840q0 -146 2.5 -355.5t5.5 -346.5l2 -137h236v-82q-64 0 -143.5 5t-126.5 10l-48 5q-31 574 -31 901z" />
<glyph unicode="\" horiz-adv-x="587" d="M18 1536h103l459 -1700h-103z" />
<glyph unicode="]" horiz-adv-x="485" d="M-6 -225h235q11 512 11 839q0 146 -3 356t-5 347l-3 137h-235v82q64 0 143 -5t127 -10l47 -5q31 -575 31 -902q0 -146 -8 -371t-16 -377l-7 -153q-174 -20 -317 -20v82z" />
<glyph unicode="^" horiz-adv-x="1126" d="M102 655q183 396 400 779q30 20 61 20q14 0 29.5 -5t23.5 -10l9 -5q211 -373 399 -779h-92l-369 717l-368 -717h-93z" />
<glyph unicode="_" horiz-adv-x="1024" d="M0 -143h1024v-82h-1024v82z" />
<glyph unicode="`" horiz-adv-x="512" d="M82 1403l61 61q55 -55 126.5 -121.5t116.5 -105.5l44 -39l-51 -51q-174 133 -297 256z" />
<glyph unicode="a" horiz-adv-x="948" d="M57 276q0 35 6.5 68.5t31.5 77t66 75t117.5 54t178.5 22.5q50 0 119 -5t113 -10l44 -5q0 222 -59.5 316t-216.5 94q-77 0 -156.5 -7.5t-120.5 -15.5l-41 -8v72q144 40 318 40q74 0 133 -16.5t98 -42t67.5 -68t43.5 -83.5t24 -101t11 -107t2 -114q0 -97 -5 -225t-11 -207 l-5 -80q-127 -20 -358 -20q-102 0 -178.5 23t-117.5 55.5t-66 76t-31.5 76t-6.5 65.5zM160 276q0 -35 6 -63t25 -57.5t50.5 -49t86.5 -32.5t129 -13h276v431h-276q-74 0 -129 -13t-86.5 -33t-50.5 -50t-25 -58t-6 -62z" />
<glyph unicode="b" d="M123 737q0 146 5 345.5t10 326.5l5 127h93q-11 -267 -11 -530q125 38 277 38q420 0 420 -532t-420 -532q-87 0 -176.5 5t-135.5 10l-47 5q-20 410 -20 737zM225 61h277q80 0 138.5 25t92.5 65t54 101.5t26 121t6 138.5t-6 138.5t-26 121t-54 101.5t-92.5 65t-138.5 25 q-145 0 -277 -21v-881z" />
<glyph unicode="c" horiz-adv-x="851" d="M82 512q0 532 430 532q73 0 144.5 -13t107.5 -25l35 -13v-71q-123 41 -287 41q-70 0 -124 -16.5t-89 -48.5t-58.5 -71.5t-35.5 -93.5t-16.5 -105t-4.5 -116q0 -78 6.5 -138t26.5 -121.5t54 -101.5t92.5 -65t138.5 -25q77 0 151.5 10.5t110.5 20.5l35 10v-71 q-14 -6 -39 -14.5t-103 -22.5t-155 -14q-420 0 -420 532z" />
<glyph unicode="d" d="M82 512q0 532 420 532q151 0 276 -38q0 117 -2.5 249.5t-5.5 206.5l-2 74h92q21 -472 21 -799q0 -146 -5.5 -330t-10.5 -295l-5 -112q-163 -20 -358 -20q-420 0 -420 532zM184 512q0 -78 6.5 -138t26.5 -121.5t54 -101.5t92.5 -65t138.5 -25h276v881q-132 21 -276 21 q-80 0 -138.5 -25t-92.5 -65t-54 -101.5t-26.5 -121.5t-6.5 -138z" />
<glyph unicode="e" horiz-adv-x="946" d="M84 512q0 59 3 107.5t14 105.5t29 100.5t50 86t75 70.5t106.5 45t142.5 17q96 0 168.5 -24t111.5 -57.5t62.5 -80.5t30 -82.5t6.5 -72.5q0 -29 -5 -56t-18 -60.5t-40 -60t-67 -50t-104 -36.5t-145 -13q-43 0 -122.5 5t-137.5 10l-58 5q0 -62 6.5 -114t26.5 -109 t53.5 -96.5t93 -65t138.5 -25.5q77 0 156.5 10.5t119.5 20.5l41 10v-71q-14 -6 -39.5 -14.5t-108 -22.5t-169.5 -14q-420 0 -420 532zM186 532h318q68 0 119 12.5t80.5 32t47.5 47t23.5 51.5t5.5 52t-5.5 56t-24 62t-47 59t-80.5 42t-119 17q-83 0 -143 -26t-93 -65.5 t-52.5 -100.5t-24.5 -114.5t-5 -124.5z" />
<glyph unicode="f" horiz-adv-x="624" d="M16 963v61q103 20 236 20q0 70 3.5 124t13.5 107.5t27 91.5t44 71.5t64.5 54t89 32t116.5 11.5v-72q-150 0 -203 -92t-53 -328q68 0 132 -5t94 -10l30 -5v-61h-256v-963h-82q-20 404 -20 731v232h-236z" />
<glyph unicode="g" d="M82 512q0 532 430 532q91 0 178 -5t128 -10l42 -5q21 -411 21 -717q0 -107 -2 -185t-7.5 -157.5t-15.5 -134.5t-26 -108.5t-39.5 -88t-55 -64.5t-73.5 -46.5t-94 -25.5t-117 -9q-55 0 -116.5 8t-95.5 16l-34 7v71q123 -20 246 -20q82 0 139.5 18t93.5 50t56.5 88.5 t28.5 120.5t9 159q-174 -26 -266 -26q-430 0 -430 532zM184 512q0 -70 6 -126.5t27 -120t55.5 -106t95.5 -70.5t144 -28q41 0 107.5 2.5t112.5 5.5l46 3v891h-266q-83 0 -144 -28t-95.5 -70.5t-55.5 -106t-27 -120t-6 -126.5z" />
<glyph unicode="h" horiz-adv-x="1030" d="M123 717q0 136 5 341t10 342l5 136h93q-11 -276 -11 -522q135 30 287 30q79 0 142.5 -19.5t105.5 -49.5t73 -76.5t47.5 -90.5t26.5 -101.5t12.5 -100t2.5 -94.5q0 -64 -5 -192t-11 -224l-5 -96h-82v512q0 50 -2 90t-10 88.5t-21 85.5t-36 73.5t-55 60.5t-78.5 38.5 t-104.5 14.5q-68 0 -139.5 -2.5t-109.5 -5.5l-38 -3v-952h-82q-20 411 -20 717z" />
<glyph unicode="i" horiz-adv-x="354" d="M113 1280q0 31 20 51.5t51 20.5t51.5 -20.5t20.5 -51.5t-20.5 -51.5t-51.5 -20.5t-51 20.5t-20 51.5zM123 737q0 96 1.5 168t3.5 95l1 24h96v-1024h-82q-20 410 -20 737z" />
<glyph unicode="j" horiz-adv-x="358" d="M-102 -420q38 0 59.5 1.5t51 10t46.5 24.5t36 46.5t29 75t16.5 110.5t6.5 152q0 10 -10 276t-10 461q0 96 1.5 168t3.5 95l1 24h96v-307q0 -182 5.5 -443t5.5 -274q0 -108 -7.5 -185.5t-26 -133t-43 -89t-65 -52.5t-85.5 -25.5t-111 -6.5v72zM113 1280q0 31 20 51.5 t51 20.5t51.5 -20.5t20.5 -51.5t-20.5 -51.5t-51.5 -20.5t-51 20.5t-20 51.5z" />
<glyph unicode="k" horiz-adv-x="897" d="M123 717q0 136 5 341t10 342l5 136h93q-11 -513 -11 -819v-205l267 246q59 55 125.5 121.5t103.5 105.5l37 39h123q-222 -226 -328 -328q-18 -18 -69.5 -64t-93.5 -83l-42 -37q164 -143 205 -184q47 -45 129 -127t140 -141l59 -60h-123q-133 143 -266 266l-267 246v-512 h-82q-20 411 -20 717z" />
<glyph unicode="l" horiz-adv-x="354" d="M123 737q0 146 5 345.5t10 326.5l5 127h93q-11 -452 -11 -799v-737h-82q-20 410 -20 737z" />
<glyph unicode="m" horiz-adv-x="1767" d="M123 737q0 96 1.5 168t3.5 95l1 24h66q14 -41 30 -164q26 43 50 72.5t60 57t85 41t112 13.5q279 0 369 -237q107 237 348 237q79 0 142 -19.5t105 -49.5t73 -76t48 -91t27 -101.5t12.5 -99.5t2.5 -95q0 -68 -5.5 -196t-10.5 -222l-5 -94h-82v512q0 56 -2.5 99.5t-10 92.5 t-21 85t-37 70.5t-55 56t-77.5 34.5t-104 13q-71 0 -126 -23.5t-88.5 -61.5t-55 -92.5t-29.5 -110.5t-8 -122v-553h-102v512q0 66 -4 116t-14.5 105t-32 93.5t-54.5 71t-84.5 49t-118.5 16.5q-71 0 -126 -23.5t-88.5 -61.5t-55 -92.5t-29.5 -110.5t-8 -122v-553h-82 q-20 410 -20 737z" />
<glyph unicode="n" horiz-adv-x="1069" d="M123 737q0 96 1.5 168t3.5 95l1 24h66q14 -41 30 -164q52 88 125 136t193 48q420 0 420 -532q0 -68 -5.5 -196t-10.5 -222l-5 -94h-82v512q0 79 -6 138.5t-26 121t-54 101.5t-92.5 65t-138.5 25q-89 0 -153 -34.5t-99 -94.5t-50.5 -129.5t-15.5 -151.5v-553h-82 q-20 410 -20 737z" />
<glyph unicode="o" d="M82 512q0 532 420 532t420 -532t-420 -532t-420 532zM184 512q0 -78 6.5 -138t26.5 -121.5t54 -101.5t92.5 -65t138.5 -25t138.5 25t92.5 65t54 101.5t26 121t6 138.5t-6 138.5t-26 121t-54 101.5t-92.5 65t-138.5 25t-138.5 -25t-92.5 -65t-54 -101.5t-26.5 -121.5 t-6.5 -138z" />
<glyph unicode="p" d="M123 287q0 146 5 330t10 295l5 112q164 20 359 20q420 0 420 -532t-420 -532q-152 0 -277 38q0 -117 2.5 -249.5t5.5 -206.5l3 -74h-93q-20 472 -20 799zM225 82q132 -21 277 -21q80 0 138.5 25t92.5 65t54 101.5t26 121t6 138.5t-6 138.5t-26 121t-54 101.5t-92.5 65 t-138.5 25h-277v-881z" />
<glyph unicode="q" horiz-adv-x="1009" d="M82 512q0 532 420 532q96 0 190.5 -5t141.5 -10l47 -5v-1536h-82q-17 267 -21 532q-131 -40 -276 -40q-420 0 -420 532zM184 512q0 -78 6.5 -138t26.5 -121.5t54 -101.5t92.5 -65t138.5 -25q144 0 276 21v881h-276q-80 0 -138.5 -25t-92.5 -65t-54 -101.5t-26.5 -121.5 t-6.5 -138z" />
<glyph unicode="r" horiz-adv-x="800" d="M123 737q0 96 1.5 168t3.5 95l1 24h66q14 -41 30 -164q52 88 125 136t193 48q59 0 118 -8t88 -16l29 -8v-70q-81 21 -235 21q-89 0 -153 -34.5t-99 -94.5t-50.5 -129.5t-15.5 -151.5v-553h-82q-20 410 -20 737z" />
<glyph unicode="s" horiz-adv-x="890" d="M72 764q0 121 92.5 200.5t286.5 79.5q87 0 166 -13t115 -25l36 -13v-71q-14 5 -39.5 11.5t-108 18t-169.5 11.5q-133 0 -205 -50.5t-72 -148.5q0 -107 62 -152.5t215 -54.5q203 -13 290.5 -86t87.5 -205q0 -125 -94.5 -205.5t-283.5 -80.5q-87 0 -176.5 17.5t-136.5 35.5 l-46 18v72q18 -7 51 -17.5t127 -27.5t181 -17q143 0 209.5 51.5t66.5 153.5q0 107 -60.5 149.5t-215.5 51.5q-201 13 -290 89t-89 208z" />
<glyph unicode="t" horiz-adv-x="612" d="M-4 963v61q122 20 235 20q0 109 5.5 232t10.5 192l5 68h92q-10 -246 -10 -492q59 0 123 -5t99 -10l34 -5v-61h-256v-123q0 -111 0.5 -179.5t2.5 -149.5t5.5 -127t10 -100t16.5 -81.5t24.5 -59t32.5 -45t43 -26.5t54 -17t67 -4v-71q-66 0 -115.5 9.5t-87.5 37t-63.5 56.5 t-43.5 90.5t-27.5 114t-14.5 152t-6 179.5t-1 221v123h-235z" />
<glyph unicode="u" horiz-adv-x="1069" d="M106 512q0 68 5 196t11 222l5 94h82v-512q0 -79 6 -138.5t26 -121t54 -101.5t92.5 -65t138.5 -25q88 0 152.5 34.5t99.5 94.5t50.5 129.5t15.5 151.5v553h82q20 -410 20 -737q0 -96 -1.5 -168t-2.5 -95l-2 -24h-66q-14 41 -30 164q-52 -88 -125 -136t-193 -48 q-420 0 -420 532z" />
<glyph unicode="v" horiz-adv-x="909" d="M25 1024h102q55 -188 92 -311q35 -112 94 -269.5t101 -259.5l41 -102q157 379 235 631l92 311h103q-58 -190 -97 -313q-48 -152 -116 -329.5t-112 -279.5l-44 -102q-30 -10 -61 -10q-14 0 -29.5 2.5t-23.5 5.5l-9 2q-163 370 -272 711z" />
<glyph unicode="w" horiz-adv-x="1630" d="M27 1024h102q47 -184 82 -307q28 -102 84 -260.5t99 -266.5l42 -108q152 389 226 635l92 307q30 10 61 10q14 0 29.5 -2.5t23.5 -5.5l9 -2l92 -307q33 -109 89 -268t96 -263l40 -104q159 406 225 635l82 307h103q-49 -184 -86 -307q-44 -146 -109.5 -325t-109.5 -286 l-44 -106q-30 -10 -61 -10q-14 0 -29 2.5t-23 5.5l-9 2q-175 411 -261 717l-57 205l-57 -205q-38 -136 -103 -315.5t-111 -290.5l-46 -111q-31 -10 -62 -10q-14 0 -29 2.5t-23 5.5l-9 2q-164 390 -262 717z" />
<glyph unicode="x" horiz-adv-x="851" d="M27 0q178 289 346 512q-75 99 -161.5 227t-135.5 207l-49 78h110q137 -231 289 -440q67 93 139 203t111 173l39 64h110q-178 -289 -346 -512q75 -99 161.5 -227t135.5 -207l49 -78h-110q-139 229 -289 438q-68 -93 -140 -202.5t-110 -172.5l-39 -63h-110z" />
<glyph unicode="y" horiz-adv-x="1071" d="M109 512q0 68 5 196t10 222l5 94h82v-512q0 -51 1.5 -87.5t6 -82t14.5 -77.5t25 -66.5t39 -57.5t56 -42.5t76 -28.5t99 -9q318 0 318 412v551h82q20 -390 20 -717q0 -104 -2 -179.5t-7.5 -154.5t-16 -133.5t-27 -109t-41 -90t-57.5 -67t-77 -48.5t-99 -27t-123 -10 q-55 0 -111.5 8t-85.5 16l-29 7v71q103 -20 226 -20q51 0 88.5 4t73.5 15.5t61 31t47 51t35.5 75t24 104.5t14.5 137.5t4 175.5q-88 -184 -318 -184q-83 0 -149 19.5t-109.5 49.5t-74.5 77t-47.5 90t-25.5 102t-11 99.5t-2 94.5z" />
<glyph unicode="z" horiz-adv-x="849" d="M23 0q119 216 372 553q55 73 126.5 175.5t116.5 168.5l44 66h-250q-82 0 -169 -2.5t-133 -5.5l-46 -3v72q164 20 348 20q82 0 179 -5t153 -10l57 -5q-119 -216 -372 -553q-55 -73 -126.5 -175.5t-116.5 -168.5l-44 -66h250q82 0 174 2.5t143 5.5l51 3v-72 q-184 -20 -368 -20q-82 0 -179 5t-153 10z" />
<glyph unicode="{" horiz-adv-x="526" d="M41 573v82h41q43 0 68.5 31t40 117.5t14.5 240.5q0 128 12.5 218t33.5 143t56.5 82.5t72.5 39t91 9.5v-61q-49 0 -78 -16t-49.5 -63t-28.5 -130.5t-8 -221.5q0 -184 -35.5 -289.5t-87.5 -140.5q53 -41 88 -145t35 -285q0 -183 16.5 -275t49.5 -123.5t98 -31.5v-61 q-45 0 -77 6.5t-64.5 24.5t-53.5 52t-38 87.5t-25 133.5t-8 187q0 151 -14 237.5t-40 119t-69 32.5h-41z" />
<glyph unicode="|" horiz-adv-x="399" d="M154 -512v2048h92v-2048h-92z" />
<glyph unicode="}" horiz-adv-x="526" d="M55 -246q65 0 98 31.5t49.5 123.5t16.5 275q0 181 35 285t88 145q-52 35 -87.5 140.5t-35.5 289.5q0 138 -8 221.5t-28.5 130.5t-49.5 63t-78 16v61q54 0 91 -9.5t73 -39t57 -82.5t33.5 -143t12.5 -218q0 -155 14 -241t39.5 -117t68.5 -31h41v-82h-41q-43 0 -68.5 -32.5 t-39.5 -119t-14 -237.5q0 -128 -12.5 -217.5t-33.5 -142.5t-57 -83t-73 -39t-91 -9v61z" />
<glyph unicode="~" horiz-adv-x="1046" d="M76 635q1 10 3.5 26.5t18.5 59t40 75t72.5 59t111.5 26.5q74 0 126 -25.5t81 -61.5t54 -72t61.5 -61.5t86.5 -25.5q46 0 81 17t51.5 41t27 48t12.5 41l2 17h72q-1 -10 -3.5 -26.5t-18.5 -59t-40 -75t-72.5 -59t-111.5 -26.5q-74 0 -126 25.5t-81 61.5t-54 72t-61.5 61.5 t-86.5 25.5q-46 0 -81 -17t-52 -41t-27.5 -48t-12.5 -41l-2 -17h-71z" />
<glyph unicode="&#xa1;" horiz-adv-x="409" d="M139 963q0 31 20.5 51t51.5 20t51.5 -20t20.5 -51t-20.5 -51.5t-51.5 -20.5t-51.5 20.5t-20.5 51.5zM150 -410q10 390 10 717v410h102v-410q0 -146 -5 -325t-10 -286l-5 -106h-92z" />
<glyph unicode="&#xa2;" horiz-adv-x="878" d="M55 512q0 491 369 528q0 37 2.5 84.5t5.5 75.5l2 29h82q-10 -103 -10 -185q68 -2 134.5 -14.5t99.5 -24.5l32 -12v-71q-123 41 -287 41q-70 0 -124 -16.5t-89 -48.5t-58 -71t-35 -93.5t-16.5 -105.5t-4.5 -116q0 -79 6 -138.5t26 -121t54 -101.5t92.5 -65t138.5 -25 q77 0 151.5 10.5t109.5 20.5l36 10v-71q-104 -43 -256 -49l-10 -187h-82q8 103 10 187q-379 22 -379 530z" />
<glyph unicode="&#xa3;" horiz-adv-x="1034" d="M63 0v61q38 0 75 13t81 54t76 105.5t54 179t22 263.5h-308v61q124 21 308 21q0 142 10.5 244.5t38 192t75.5 144t124 85t182 30.5q35 0 76 -5t65 -10l23 -5v-62q-78 10 -164 10q-83 0 -140 -22.5t-94.5 -66t-57.5 -122t-28 -174.5t-8 -239q73 0 155 -5t128 -11l45 -5v-61 h-328q0 -111 -12.5 -204.5t-32.5 -155t-44 -110t-47.5 -75t-43.5 -43.5t-33 -22l-12 -5h287q107 0 214.5 2.5t161.5 5.5l54 3v-72q-186 -20 -430 -20q-100 0 -218 5t-186 10z" />
<glyph unicode="&#xa5;" horiz-adv-x="1130" d="M53 1434h113q41 -94 157.5 -293t241.5 -373q125 174 242 373.5t158 292.5h112q-29 -71 -137 -257.5t-225 -359.5q70 -3 140 -7.5t105 -7.5l35 -3v-62h-336q-40 -57 -43 -61q0 -26 -1 -81t-1 -83h381v-61q-178 -19 -383 -21l-16 -430h-92q4 203 8 430q-90 1 -184.5 6 t-143.5 10l-49 5v61h377q2 55 2 164l-45 61h-334v62q123 10 281 16q-120 180 -228.5 366t-134.5 253z" />
<glyph unicode="&#xa6;" horiz-adv-x="417" d="M158 369h102v-881h-102v881zM158 655v881h102v-881h-102z" />
<glyph unicode="&#xa7;" horiz-adv-x="950" d="M78 717q0 160 143 246q-143 57 -143 225q0 121 100 193.5t299 72.5q87 0 171.5 -13t125.5 -25l41 -13v-72q-143 41 -338 41q-143 0 -220 -41t-77 -143q0 -97 64.5 -131.5t232.5 -40.5q400 -17 400 -299q0 -160 -144 -246q144 -58 144 -225q0 -121 -100.5 -193.5 t-299.5 -72.5q-87 0 -176.5 15t-135.5 31l-46 15v72q16 -6 45.5 -14.5t123 -23t189.5 -14.5q143 0 220 41.5t77 143.5q0 97 -64.5 131.5t-232.5 40.5q-399 17 -399 299zM180 717q0 -41 12 -74t29.5 -54.5t46 -38t53.5 -25t61 -14.5t59 -8t57.5 -4t46.5 -3q116 12 172.5 69 t56.5 152q0 41 -11.5 73.5t-28 54.5t-45.5 38.5t-52.5 25t-61 14.5t-59.5 8t-59.5 4t-50.5 3q-113 -12 -169.5 -69.5t-56.5 -151.5z" />
<glyph unicode="&#xa8;" horiz-adv-x="614" d="M82 1280q0 31 20.5 51.5t51.5 20.5t51 -20.5t20 -51.5t-20 -51.5t-51 -20.5t-51.5 20.5t-20.5 51.5zM389 1280q0 31 20.5 51.5t51.5 20.5t51 -20.5t20 -51.5t-20 -51.5t-51 -20.5t-51.5 20.5t-20.5 51.5z" />
<glyph unicode="&#xa9;" horiz-adv-x="1282" d="M68 717q0 123 38 228t109.5 181.5t181 120t244.5 43.5t244.5 -43.5t181 -120t109.5 -181.5t38 -228t-38 -228t-109.5 -182t-181 -120.5t-244.5 -43.5t-244.5 43.5t-181 120.5t-109.5 182t-38 228zM170 717q0 -233 121.5 -362.5t349.5 -129.5t349.5 129.5t121.5 362.5 t-121.5 362t-349.5 129t-349.5 -129t-121.5 -362zM334 717q0 43 7 85.5t27.5 91.5t52 85.5t86 61t124.5 24.5q50 0 104 -7.5t83 -15.5l28 -8v-61q-102 20 -215 20q-55 0 -96.5 -25.5t-64 -67t-33.5 -88t-11 -95.5t11 -95.5t33.5 -88.5t64 -67.5t96.5 -25.5q50 0 104 5t83 11 l28 5v-62q-82 -30 -215 -30q-70 0 -124.5 24.5t-86 61t-52 85.5t-27.5 91.5t-7 85.5z" />
<glyph unicode="&#xaa;" horiz-adv-x="714" d="M90 952q0 26 3.5 47t19.5 48.5t43 45.5t78.5 31t121.5 13l174 -11q0 146 -35.5 206.5t-138.5 60.5q-55 0 -108.5 -5.5t-79.5 -10.5l-27 -5v51q92 31 215 31q43 0 78 -8t60 -24t43.5 -35t30 -47t19 -52.5t10.5 -59.5t4 -60.5t1 -61.5q0 -60 -3 -147t-6 -144l-3 -57 q-70 -10 -234 -10q-70 0 -122 16t-78.5 38t-42.5 52.5t-19.5 52t-3.5 45.5zM162 952q0 -143 194 -143h174v266h-174q-105 0 -149.5 -30t-44.5 -93z" />
<glyph unicode="&#xab;" horiz-adv-x="1028" d="M63 512q0 14 2.5 29t5.5 23l3 9q24 24 65.5 63.5t152.5 133t202 152.5l51 -52q-188 -146 -400 -358q212 -212 400 -358l-51 -52q-91 59 -196 146.5t-164 145.5l-60 57q-11 30 -11 61zM453 512q0 14 2.5 29t4.5 23l3 9q24 24 65.5 63.5t152.5 133t202 152.5l51 -52 q-184 -143 -399 -358q215 -215 399 -358l-51 -52q-91 59 -196 146.5t-165 145.5l-59 57q-10 30 -10 61z" />
<glyph unicode="&#xad;" horiz-adv-x="704" d="M106 584v82h492v-82h-492z" />
<glyph unicode="&#xae;" horiz-adv-x="831" d="M68 1106q0 160 88 254t260 94t260 -94t88 -254t-88 -254t-260 -94t-260 94t-88 254zM129 1106q0 -131 70 -209t217 -78q146 0 216 78t70 209t-70 209t-216 78q-147 0 -217 -78t-70 -209zM287 1106l6 184q62 6 123 6q65 0 99 -33.5t34 -82.5q0 -39 -22.5 -67.5 t-55.5 -37.5q19 -30 41 -68.5t34 -61.5l13 -23h-59l-80 147h-80l4 -147h-51q-6 106 -6 184zM340 1112h86q30 0 51 19.5t21 48.5t-21 49t-51 20h-86v-137z" />
<glyph unicode="&#xaf;" horiz-adv-x="614" d="M82 1208v82h450v-82h-450z" />
<glyph unicode="&#xb0;" horiz-adv-x="663" d="M86 1208q0 114 68.5 180t177.5 66t177.5 -66t68.5 -180q0 -113 -68.5 -179t-177.5 -66t-177.5 66t-68.5 179zM168 1208q0 -76 44 -120t120 -44t120 44t44 120t-44 120t-120 44t-120 -44t-44 -120z" />
<glyph unicode="&#xb1;" horiz-adv-x="1228" d="M102 0v82h1024v-82h-1024zM102 696v82h461q0 91 2.5 209t4.5 190l3 72h95v-471h458v-82h-460v-471h-93q-10 225 -10 471h-461z" />
<glyph unicode="&#xb2;" horiz-adv-x="622" d="M90 891q0 86 47.5 135t167.5 82q53 15 86.5 34t47 43t17 41t3.5 44q0 102 -164 102q-50 0 -96 -10t-67 -20l-21 -11v62q9 6 25.5 14.5t65 22.5t93.5 14q129 0 187.5 -48.5t58.5 -125.5q0 -91 -47.5 -146.5t-178.5 -93.5q-84 -24 -113.5 -49t-29.5 -90v-113h123 q54 0 110 2t85 4l30 2v-69q-100 -10 -225 -10q-41 0 -89.5 2.5t-77.5 4.5l-28 3q-10 70 -10 174z" />
<glyph unicode="&#xb3;" horiz-adv-x="632" d="M82 758v61q9 -5 26.5 -11.5t73.5 -18t115 -11.5q91 0 132.5 30.5t41.5 92.5q0 64 -36 97.5t-118 37.5l-102 6v66h92q82 0 123 38.5t41 102.5q0 123 -174 123q-50 0 -99 -10t-72 -20l-24 -11v62q9 6 26 14.5t68 22.5t101 14q256 0 256 -195q0 -62 -26.5 -102t-82.5 -72 q57 -32 83 -71.5t26 -102.5q0 -86 -60 -140t-196 -54q-59 0 -113 12.5t-78 25.5z" />
<glyph unicode="&#xb4;" horiz-adv-x="512" d="M82 1198q164 143 287 266l61 -61q-55 -55 -129 -119t-121 -100l-47 -37z" />
<glyph unicode="&#xb6;" horiz-adv-x="1089" d="M33 1044q0 196 112 303t338 107q109 0 229.5 -5t186.5 -10l66 -5q-11 -396 -11 -717q0 -143 3 -322.5t5 -286.5l3 -108h-93q-18 325 -20 625h-287l10 -625h-92q-18 325 -20 625q-214 4 -322 115t-108 304zM135 1044q0 -157 84.5 -245t243.5 -92q0 337 16 665 q-168 -2 -256 -85.5t-88 -242.5zM565 707h287q0 337 16 665h-295q-8 -246 -8 -665z" />
<glyph unicode="&#xb7;" horiz-adv-x="389" d="M123 717q0 31 20.5 51t51.5 20t51 -20t20 -51t-20 -51.5t-51 -20.5t-51.5 20.5t-20.5 51.5z" />
<glyph unicode="&#xb8;" horiz-adv-x="593" d="M82 -369q10 -6 28 -14.5t71.5 -22.5t105.5 -14q143 0 143 113q0 64 -37 88t-106 24h-144q6 36 21.5 85t27.5 80l13 30h102l-61 -133q31 10 92 10q79 0 131.5 -42.5t52.5 -141.5q0 -90 -62.5 -137.5t-172.5 -47.5q-51 0 -102.5 14.5t-76.5 29.5l-26 14v65z" />
<glyph unicode="&#xb9;" horiz-adv-x="335" d="M33 1321v61q32 0 63 13t46 26l14 13h82q-11 -205 -11 -359v-358h-71q-11 204 -11 358l7 277q-47 -31 -119 -31z" />
<glyph unicode="&#xba;" horiz-adv-x="761" d="M94 1106q0 34 1.5 61.5t8 65t18 66.5t33 59.5t51 50.5t74.5 32.5t101 12.5t101 -12.5t74.5 -32.5t51 -50.5t33 -59.5t18 -66.5t8 -65t1.5 -61.5t-1.5 -62t-8 -66.5t-18 -68.5t-33 -61.5t-51 -52t-74.5 -34t-101 -13.5t-101 13.5t-74.5 34t-51 52t-33 61.5t-18 68.5 t-8 66.5t-1.5 62zM166 1106q0 -69 9.5 -120t33 -92.5t66.5 -63t106 -21.5t106 21.5t66.5 63t33 92.5t9.5 120t-9.5 119t-33 89.5t-66.5 59t-106 19.5t-106 -19.5t-66.5 -59t-33 -89.5t-9.5 -119z" />
<glyph unicode="&#xbb;" horiz-adv-x="1028" d="M94 154q188 146 400 358q-212 212 -400 358l51 52q91 -59 196 -146.5t165 -145.5l59 -57q10 -30 10 -61q0 -14 -2.5 -29t-4.5 -23l-3 -9q-24 -24 -65.5 -63.5t-152.5 -133t-202 -152.5zM483 154q188 146 400 358q-212 212 -400 358l52 52q91 -59 196 -146.5t164 -145.5 l59 -57q11 -30 11 -61q0 -14 -2.5 -29t-5.5 -23l-3 -9q-24 -24 -65 -63.5t-152 -133t-202 -152.5z" />
<glyph unicode="&#xbc;" horiz-adv-x="1208" d="M70 0l737 1434h92l-737 -1434h-92zM70 1321v61q32 0 63 13t45 26l15 13h81q-10 -205 -10 -359v-358h-71q-11 204 -11 358l6 277q-46 -31 -118 -31zM612 291q10 55 38 162.5t51 187.5t24 76h82q-59 -196 -92 -352h266q0 67 2.5 155t4.5 142l3 55h82q-8 -202 -8 -352h100 v-74h-100l8 -291h-82q-8 156 -10 291h-369z" />
<glyph unicode="&#xbd;" horiz-adv-x="1124" d="M63 0l738 1434h92l-737 -1434h-93zM63 1321v61q32 0 63 13t46 26l14 13h82q-10 -205 -10 -359v-358h-72q-10 204 -10 358l6 277q-47 -31 -119 -31zM616 174q0 86 47.5 135t167.5 82q53 15 86.5 34t47 43t17 41t3.5 44q0 102 -164 102q-50 0 -96 -10.5t-67 -20.5l-21 -10 v62q9 6 25.5 14.5t65 22.5t93.5 14q129 0 187.5 -48.5t58.5 -125.5q0 -91 -47 -146.5t-178 -93.5q-84 -24 -114 -49t-30 -90v-113h123q54 0 110.5 2.5t86.5 4.5l29 2v-70q-101 -10 -226 -10q-41 0 -89.5 2.5t-76.5 5.5l-28 2q-11 70 -11 174z" />
<glyph unicode="&#xbe;" horiz-adv-x="1413" d="M68 758v61q9 -5 26.5 -11.5t73.5 -18t115 -11.5q91 0 132.5 30.5t41.5 92.5q0 64 -36 97.5t-118 37.5l-102 6v66h92q82 0 123 38.5t41 102.5q0 123 -174 123q-50 0 -99 -10t-72 -20l-24 -11v62q9 6 26 14.5t68 22.5t101 14q256 0 256 -195q0 -62 -26.5 -102t-82.5 -72 q57 -32 83 -71.5t26 -102.5q0 -86 -60 -140t-196 -54q-59 0 -113 12.5t-78 25.5zM272 0l738 1434h92l-737 -1434h-93zM815 291q9 56 37 163t51.5 187t24.5 76h82q-59 -196 -92 -352h266q0 67 2.5 155t5.5 142l2 55h82q-8 -202 -8 -352h100v-74h-100l8 -291h-82 q-8 156 -10 291h-369z" />
<glyph unicode="&#xbf;" horiz-adv-x="794" d="M39 -41q0 151 76.5 244.5t271.5 152.5q55 16 92 37t59.5 44.5t34.5 58.5t15.5 70t3.5 89v62h102v-62q0 -54 -4 -92.5t-20.5 -86.5t-46 -83t-84 -69t-131.5 -58q-65 -21 -113 -46.5t-77.5 -53t-46.5 -62.5t-23.5 -68.5t-6.5 -76.5q0 -49 9 -90t35 -82.5t69 -70t116 -46.5 t171 -18q105 0 199.5 23t137.5 46l42 23v-72q-6 -4 -17 -11t-48.5 -24.5t-78.5 -31t-105 -24.5t-130 -11q-119 0 -208.5 21.5t-144.5 57t-89.5 87t-47 105t-12.5 118.5zM571 963q0 31 20.5 51t51.5 20t51.5 -20t20.5 -51t-20.5 -51.5t-51.5 -20.5t-51.5 20.5t-20.5 51.5z " />
<glyph unicode="&#xc0;" horiz-adv-x="1204" d="M121 553q0 90 2 153t9 153.5t22.5 161.5t40.5 148t66 144t95 121q82 20 236 20q68 0 132 -5t94 -10l30 -5q54 -54 95 -121t66 -144t40.5 -148t22.5 -161.5t9 -153.5t2 -153q0 -116 -5 -254t-10 -219l-5 -80h-82v645h-758v-645h-82q-20 294 -20 553zM223 727h758 q-8 224 -50 373.5t-134 271.5h-389q-92 -123 -134.5 -272.5t-50.5 -372.5zM367 1812l61 62q55 -55 126.5 -121.5t115.5 -105.5l45 -39l-51 -52q-174 133 -297 256z" />
<glyph unicode="&#xc1;" horiz-adv-x="1204" d="M121 553q0 90 2 153t9 153.5t22.5 161.5t40.5 148t66 144t95 121q82 20 236 20q68 0 132 -5t94 -10l30 -5q54 -54 95 -121t66 -144t40.5 -148t22.5 -161.5t9 -153.5t2 -153q0 -116 -5 -254t-10 -219l-5 -80h-82v645h-758v-645h-82q-20 294 -20 553zM223 727h758 q-8 224 -50 373.5t-134 271.5h-389q-92 -123 -134.5 -272.5t-50.5 -372.5zM489 1608q164 143 287 266l62 -62q-55 -55 -129 -119t-121 -101l-47 -36z" />
<glyph unicode="&#xc2;" horiz-adv-x="1204" d="M121 553q0 90 2 153t9 153.5t22.5 161.5t40.5 148t66 144t95 121q82 20 236 20q68 0 132 -5t94 -10l30 -5q54 -54 95 -121t66 -144t40.5 -148t22.5 -161.5t9 -153.5t2 -153q0 -116 -5 -254t-10 -219l-5 -80h-82v645h-758v-645h-82q-20 294 -20 553zM223 727h758 q-8 224 -50 373.5t-134 271.5h-389q-92 -123 -134.5 -272.5t-50.5 -372.5zM315 1608q16 18 44 48t103.5 101.5t139.5 116.5q64 -45 135.5 -111.5t111.5 -110.5l40 -44l-51 -52q-93 103 -236 205q-64 -45 -122.5 -96.5t-85.5 -80.5l-27 -28z" />
<glyph unicode="&#xc3;" horiz-adv-x="1204" d="M121 553q0 90 2 153t9 153.5t22.5 161.5t40.5 148t66 144t95 121q82 20 236 20q68 0 132 -5t94 -10l30 -5q54 -54 95 -121t66 -144t40.5 -148t22.5 -161.5t9 -153.5t2 -153q0 -116 -5 -254t-10 -219l-5 -80h-82v645h-758v-645h-82q-20 294 -20 553zM223 727h758 q-8 224 -50 373.5t-134 271.5h-389q-92 -123 -134.5 -272.5t-50.5 -372.5zM315 1597q0 8 2 20t12 44t25.5 56.5t48.5 44.5t76 20q44 0 92.5 -31t89 -61.5t64.5 -30.5q36 0 59 25.5t28 51.5l5 25h72q0 -7 -2 -19.5t-12 -44.5t-25.5 -56t-48.5 -44t-76 -20q-34 0 -72.5 19 t-66 42.5t-57.5 42.5t-50 19q-36 0 -59 -26t-28 -52l-5 -25h-72z" />
<glyph unicode="&#xc4;" horiz-adv-x="1204" d="M121 553q0 90 2 153t9 153.5t22.5 161.5t40.5 148t66 144t95 121q82 20 236 20q68 0 132 -5t94 -10l30 -5q54 -54 95 -121t66 -144t40.5 -148t22.5 -161.5t9 -153.5t2 -153q0 -116 -5 -254t-10 -219l-5 -80h-82v645h-758v-645h-82q-20 294 -20 553zM223 727h758 q-8 224 -50 373.5t-134 271.5h-389q-92 -123 -134.5 -272.5t-50.5 -372.5zM377 1690q0 31 20.5 51t51.5 20t51 -20t20 -51t-20 -51.5t-51 -20.5t-51.5 20.5t-20.5 51.5zM684 1690q0 31 20.5 51t51.5 20t51 -20t20 -51t-20 -51.5t-51 -20.5t-51.5 20.5t-20.5 51.5z" />
<glyph unicode="&#xc5;" horiz-adv-x="1204" d="M121 553q0 90 2 153t9 153.5t22.5 161.5t40.5 148t66 144t95 121q82 20 236 20q68 0 132 -5t94 -10l30 -5q54 -54 95 -121t66 -144t40.5 -148t22.5 -161.5t9 -153.5t2 -153q0 -116 -5 -254t-10 -219l-5 -80h-82v645h-758v-645h-82q-20 294 -20 553zM223 727h758 q-8 224 -50 373.5t-134 271.5h-389q-92 -123 -134.5 -272.5t-50.5 -372.5zM418 1741q0 77 54 130.5t130 53.5t130 -53.5t54 -130.5t-54 -131t-130 -54t-130 54t-54 131zM500 1741q0 -47 28.5 -80t73.5 -33t74 33t29 80t-29 79.5t-74 32.5t-73.5 -32.5t-28.5 -79.5z" />
<glyph unicode="&#xc6;" horiz-adv-x="1892" d="M121 553q0 90 2 153t9 153.5t22.5 161.5t40.5 148t66 144t95 121q82 20 236 20q68 0 132 -5t94 -10l30 -5q83 -83 143 -220l10 220q195 20 410 20q96 0 198.5 -5t156.5 -10l55 -5v-72q-193 10 -410 10h-328v-614h656v-82h-656v-82q0 -109 3.5 -242.5t6.5 -211.5l3 -79 h315q96 0 198.5 2.5t156.5 5.5l55 3v-72q-195 -20 -410 -20q-86 0 -188.5 5t-162.5 10l-59 5q-9 146 -14 307t-5 249l-1 89h-758v-645h-82q-20 294 -20 553zM223 727h758q-8 224 -50 373.5t-134 271.5h-389q-92 -123 -134.5 -272.5t-50.5 -372.5z" />
<glyph unicode="&#xc7;" horiz-adv-x="1075" d="M96 717q0 89 4.5 160.5t18.5 150.5t37 139t63 116t94 92t131.5 57.5t173.5 21.5q72 0 139.5 -9.5t112.5 -23t80 -27t52 -22.5l16 -10v-72l-17 8.5t-50 20t-82 25t-111 19.5t-140 9q-77 0 -139 -19t-105.5 -51t-75.5 -81.5t-50.5 -102.5t-30 -123t-15 -134t-3.5 -144 t3.5 -144t15 -134t30 -123.5t50.5 -103t75.5 -81.5t105.5 -51t139 -19t147 8.5t114 20.5t77 24t48 20l14 9v-71q-5 -3 -15.5 -8.5t-45 -20.5t-73 -26.5t-100 -22t-125.5 -12.5l-51 -115q31 10 92 10q50 0 89.5 -15t67.5 -58t28 -111q0 -90 -63 -137.5t-173 -47.5 q-51 0 -102.5 14.5t-76.5 29.5l-26 14v65q10 -6 28 -14.5t71.5 -22.5t105.5 -14q66 0 105 27.5t39 85.5q0 64 -37.5 88t-106.5 24h-143q12 75 53 177q-112 8 -194.5 48.5t-133.5 103t-81.5 156.5t-42 195t-11.5 232z" />
<glyph unicode="&#xc8;" horiz-adv-x="1052" d="M141 717q0 143 5.5 322.5t10.5 286.5l5 108q194 20 409 20q96 0 198.5 -5t156.5 -10l55 -5v-72q-193 10 -410 10h-327v-614h655v-82h-655q0 -118 3 -272t6 -248l3 -95h315q96 0 198.5 2.5t156.5 5.5l55 3v-72q-195 -20 -410 -20q-86 0 -188 5t-161 10l-60 5 q-21 394 -21 717zM336 1812l61 62q55 -55 126.5 -121.5t116.5 -105.5l44 -39l-51 -52q-174 133 -297 256z" />
<glyph unicode="&#xc9;" horiz-adv-x="1052" d="M141 717q0 143 5.5 322.5t10.5 286.5l5 108q194 20 409 20q96 0 198.5 -5t156.5 -10l55 -5v-72q-193 10 -410 10h-327v-614h655v-82h-655q0 -118 3 -272t6 -248l3 -95h315q96 0 198.5 2.5t156.5 5.5l55 3v-72q-195 -20 -410 -20q-86 0 -188 5t-161 10l-60 5 q-21 394 -21 717zM479 1608q164 143 287 266l61 -62q-55 -55 -129 -119t-121 -101l-47 -36z" />
<glyph unicode="&#xca;" horiz-adv-x="1052" d="M141 717q0 143 5.5 322.5t10.5 286.5l5 108q194 20 409 20q96 0 198.5 -5t156.5 -10l55 -5v-72q-193 10 -410 10h-327v-614h655v-82h-655q0 -118 3 -272t6 -248l3 -95h315q96 0 198.5 2.5t156.5 5.5l55 3v-72q-195 -20 -410 -20q-86 0 -188 5t-161 10l-60 5 q-21 394 -21 717zM285 1608q16 18 43.5 48t103 101.5t139.5 116.5q64 -45 135.5 -111.5t111.5 -110.5l40 -44l-51 -52q-93 103 -236 205q-64 -45 -122.5 -96.5t-85.5 -80.5l-27 -28z" />
<glyph unicode="&#xcb;" horiz-adv-x="1052" d="M141 717q0 143 5.5 322.5t10.5 286.5l5 108q194 20 409 20q96 0 198.5 -5t156.5 -10l55 -5v-72q-193 10 -410 10h-327v-614h655v-82h-655q0 -118 3 -272t6 -248l3 -95h315q96 0 198.5 2.5t156.5 5.5l55 3v-72q-195 -20 -410 -20q-86 0 -188 5t-161 10l-60 5 q-21 394 -21 717zM346 1690q0 31 20.5 51t51.5 20t51 -20t20 -51t-20 -51.5t-51 -20.5t-51.5 20.5t-20.5 51.5zM653 1690q0 31 20.5 51t51.5 20t51.5 -20t20.5 -51t-20.5 -51.5t-51.5 -20.5t-51.5 20.5t-20.5 51.5z" />
<glyph unicode="&#xcc;" horiz-adv-x="395" d="M-23 1812l62 62q55 -55 126.5 -121.5t116.5 -105.5l44 -39l-52 -52q-174 133 -297 256zM141 717q0 143 5.5 322.5t10.5 286.5l5 108h92q-10 -396 -10 -717q0 -143 2.5 -322.5t5.5 -286.5l2 -108h-92q-21 396 -21 717z" />
<glyph unicode="&#xcd;" horiz-adv-x="395" d="M100 1608q164 143 287 266l62 -62q-55 -55 -129 -119t-121 -101l-47 -36zM141 717q0 143 5.5 322.5t10.5 286.5l5 108h92q-10 -396 -10 -717q0 -143 2.5 -322.5t5.5 -286.5l2 -108h-92q-21 396 -21 717z" />
<glyph unicode="&#xce;" horiz-adv-x="395" d="M-74 1608q16 18 44 48t103.5 101.5t139.5 116.5q64 -45 135.5 -111.5t111.5 -110.5l40 -44l-51 -52q-93 103 -236 205q-64 -45 -123 -96.5t-86 -80.5l-27 -28zM141 717q0 143 5.5 322.5t10.5 286.5l5 108h92q-10 -396 -10 -717q0 -143 2.5 -322.5t5.5 -286.5l2 -108h-92 q-21 396 -21 717z" />
<glyph unicode="&#xcf;" horiz-adv-x="395" d="M-8 1690q0 31 20 51t51 20t51.5 -20t20.5 -51t-20.5 -51.5t-51.5 -20.5t-51 20.5t-20 51.5zM141 717q0 143 5.5 322.5t10.5 286.5l5 108h92q-10 -396 -10 -717q0 -143 2.5 -322.5t5.5 -286.5l2 -108h-92q-21 396 -21 717zM299 1690q0 31 20.5 51t51.5 20t51 -20t20 -51 t-20 -51.5t-51 -20.5t-51.5 20.5t-20.5 51.5z" />
<glyph unicode="&#xd0;" horiz-adv-x="1204" d="M-16 676v82h163q0 137 5.5 306t10.5 270l5 100q139 20 410 20q81 0 149.5 -15.5t119 -41.5t91.5 -66t68 -82t46.5 -98t30.5 -105t17.5 -111.5t8 -110t1.5 -107.5q0 -59 -1.5 -106.5t-8 -110t-17.5 -111.5t-30.5 -105t-46.5 -98t-68 -82.5t-91.5 -66.5t-119 -41.5 t-149.5 -15.5q-121 0 -223.5 5t-144.5 10l-42 5q-21 364 -21 676h-163zM250 676l8 -615h320q66 0 121 12t96 31.5t73.5 51.5t54.5 66t38 82t25 91.5t14 102.5t6.5 106.5t1.5 112.5t-1.5 112.5t-6.5 106.5t-14 102.5t-25 91.5t-38 81.5t-54.5 65.5t-73.5 52t-96 31.5 t-121 11.5h-328v-614h164v-82h-164z" />
<glyph unicode="&#xd1;" horiz-adv-x="1286" d="M141 717q0 143 5.5 322.5t10.5 286.5l5 108h123q37 -59 374 -649.5t383 -661.5v594q0 143 -2.5 322.5t-4.5 286.5l-3 108h92q21 -396 21 -717q0 -143 -5 -322.5t-11 -286.5l-5 -108h-123q-37 59 -374 649.5t-383 661.5v-594q0 -143 2.5 -322.5t5.5 -286.5l2 -108h-92 q-21 396 -21 717zM367 1597q0 4 1 10.5t4.5 26t10 37t19 38.5t29 36.5t42.5 26t57 10.5q44 0 92.5 -31t89 -61.5t64.5 -30.5q36 0 59 25.5t28 51.5l5 25h72q0 -7 -2 -19.5t-12 -44.5t-25.5 -56t-48.5 -44t-76 -20q-34 0 -72.5 19t-66 42.5t-57.5 42.5t-50 19q-36 0 -59 -26 t-28 -52l-5 -25h-71z" />
<glyph unicode="&#xd2;" horiz-adv-x="1236" d="M96 717q0 81 2.5 138.5t13.5 140.5t31 141t59 122.5t93 103.5t136.5 65t186.5 26q82 0 150 -16t118.5 -41t90.5 -66.5t66 -82.5t45 -98t29 -105t15.5 -112t7 -109t1.5 -107t-1.5 -107t-7 -109t-15.5 -112t-29 -105t-45 -98t-66 -82.5t-90.5 -66.5t-118.5 -41t-150 -16 q-104 0 -186.5 26t-136.5 65t-93 103.5t-59 122.5t-31 141t-13.5 140.5t-2.5 138.5zM199 717q0 -62 2 -112t7.5 -107.5t15 -102t25.5 -91.5t38 -82t54 -66.5t71.5 -51.5t91.5 -31.5t114 -11.5q79 0 142.5 19t107 51t75 82t49.5 102.5t28.5 123.5t14 134t3.5 144 q0 62 -2 112.5t-7.5 107t-15 101.5t-26 91.5t-38.5 81.5t-53.5 66.5t-71.5 51.5t-92 31.5t-114 11.5q-79 0 -142.5 -19t-106.5 -50.5t-74.5 -82t-50 -102.5t-29 -123t-13.5 -134t-3 -144zM387 1812l62 62q55 -55 126.5 -121.5t115.5 -105.5l44 -39l-51 -52 q-174 133 -297 256z" />
<glyph unicode="&#xd3;" horiz-adv-x="1236" d="M96 717q0 81 2.5 138.5t13.5 140.5t31 141t59 122.5t93 103.5t136.5 65t186.5 26q82 0 150 -16t118.5 -41t90.5 -66.5t66 -82.5t45 -98t29 -105t15.5 -112t7 -109t1.5 -107t-1.5 -107t-7 -109t-15.5 -112t-29 -105t-45 -98t-66 -82.5t-90.5 -66.5t-118.5 -41t-150 -16 q-104 0 -186.5 26t-136.5 65t-93 103.5t-59 122.5t-31 141t-13.5 140.5t-2.5 138.5zM199 717q0 -62 2 -112t7.5 -107.5t15 -102t25.5 -91.5t38 -82t54 -66.5t71.5 -51.5t91.5 -31.5t114 -11.5q79 0 142.5 19t107 51t75 82t49.5 102.5t28.5 123.5t14 134t3.5 144 q0 62 -2 112.5t-7.5 107t-15 101.5t-26 91.5t-38.5 81.5t-53.5 66.5t-71.5 51.5t-92 31.5t-114 11.5q-79 0 -142.5 -19t-106.5 -50.5t-74.5 -82t-50 -102.5t-29 -123t-13.5 -134t-3 -144zM516 1608q164 143 287 266l61 -62q-55 -55 -129 -119t-121 -101l-47 -36z" />
<glyph unicode="&#xd4;" horiz-adv-x="1236" d="M96 717q0 81 2.5 138.5t13.5 140.5t31 141t59 122.5t93 103.5t136.5 65t186.5 26q82 0 150 -16t118.5 -41t90.5 -66.5t66 -82.5t45 -98t29 -105t15.5 -112t7 -109t1.5 -107t-1.5 -107t-7 -109t-15.5 -112t-29 -105t-45 -98t-66 -82.5t-90.5 -66.5t-118.5 -41t-150 -16 q-104 0 -186.5 26t-136.5 65t-93 103.5t-59 122.5t-31 141t-13.5 140.5t-2.5 138.5zM199 717q0 -62 2 -112t7.5 -107.5t15 -102t25.5 -91.5t38 -82t54 -66.5t71.5 -51.5t91.5 -31.5t114 -11.5q79 0 142.5 19t107 51t75 82t49.5 102.5t28.5 123.5t14 134t3.5 144 q0 62 -2 112.5t-7.5 107t-15 101.5t-26 91.5t-38.5 81.5t-53.5 66.5t-71.5 51.5t-92 31.5t-114 11.5q-79 0 -142.5 -19t-106.5 -50.5t-74.5 -82t-50 -102.5t-29 -123t-13.5 -134t-3 -144zM332 1608q16 18 43.5 48t103 101.5t139.5 116.5q64 -45 135.5 -111.5t111.5 -110.5 l40 -44l-51 -52q-93 103 -236 205q-64 -45 -122.5 -96.5t-85.5 -80.5l-27 -28z" />
<glyph unicode="&#xd5;" horiz-adv-x="1236" d="M96 717q0 81 2.5 138.5t13.5 140.5t31 141t59 122.5t93 103.5t136.5 65t186.5 26q82 0 150 -16t118.5 -41t90.5 -66.5t66 -82.5t45 -98t29 -105t15.5 -112t7 -109t1.5 -107t-1.5 -107t-7 -109t-15.5 -112t-29 -105t-45 -98t-66 -82.5t-90.5 -66.5t-118.5 -41t-150 -16 q-104 0 -186.5 26t-136.5 65t-93 103.5t-59 122.5t-31 141t-13.5 140.5t-2.5 138.5zM199 717q0 -62 2 -112t7.5 -107.5t15 -102t25.5 -91.5t38 -82t54 -66.5t71.5 -51.5t91.5 -31.5t114 -11.5q79 0 142.5 19t107 51t75 82t49.5 102.5t28.5 123.5t14 134t3.5 144 q0 62 -2 112.5t-7.5 107t-15 101.5t-26 91.5t-38.5 81.5t-53.5 66.5t-71.5 51.5t-92 31.5t-114 11.5q-79 0 -142.5 -19t-106.5 -50.5t-74.5 -82t-50 -102.5t-29 -123t-13.5 -134t-3 -144zM332 1597q0 8 2 20t12 44t25.5 56.5t48.5 44.5t76 20q44 0 92 -31t88.5 -61.5 t64.5 -30.5q36 0 59.5 25.5t28.5 51.5l5 25h71q0 -7 -2 -19.5t-12 -44.5t-25.5 -56t-48.5 -44t-76 -20q-34 0 -72.5 19t-65.5 42.5t-57 42.5t-50 19q-36 0 -59.5 -26t-28.5 -52l-5 -25h-71z" />
<glyph unicode="&#xd6;" horiz-adv-x="1236" d="M96 717q0 81 2.5 138.5t13.5 140.5t31 141t59 122.5t93 103.5t136.5 65t186.5 26q82 0 150 -16t118.5 -41t90.5 -66.5t66 -82.5t45 -98t29 -105t15.5 -112t7 -109t1.5 -107t-1.5 -107t-7 -109t-15.5 -112t-29 -105t-45 -98t-66 -82.5t-90.5 -66.5t-118.5 -41t-150 -16 q-104 0 -186.5 26t-136.5 65t-93 103.5t-59 122.5t-31 141t-13.5 140.5t-2.5 138.5zM199 717q0 -62 2 -112t7.5 -107.5t15 -102t25.5 -91.5t38 -82t54 -66.5t71.5 -51.5t91.5 -31.5t114 -11.5q79 0 142.5 19t107 51t75 82t49.5 102.5t28.5 123.5t14 134t3.5 144 q0 62 -2 112.5t-7.5 107t-15 101.5t-26 91.5t-38.5 81.5t-53.5 66.5t-71.5 51.5t-92 31.5t-114 11.5q-79 0 -142.5 -19t-106.5 -50.5t-74.5 -82t-50 -102.5t-29 -123t-13.5 -134t-3 -144zM393 1690q0 31 20.5 51t51.5 20t51.5 -20t20.5 -51t-20.5 -51.5t-51.5 -20.5 t-51.5 20.5t-20.5 51.5zM700 1690q0 31 20.5 51t51.5 20t51.5 -20t20.5 -51t-20.5 -51.5t-51.5 -20.5t-51.5 20.5t-20.5 51.5z" />
<glyph unicode="&#xd7;" horiz-adv-x="1228" d="M72 41l481 481l-481 482l61 61l481 -481l482 481l61 -61l-481 -482l481 -481l-61 -61l-482 481l-481 -481z" />
<glyph unicode="&#xd8;" horiz-adv-x="1236" d="M96 0l109 166q-36 55 -59.5 123t-33.5 146.5t-13 139t-3 142.5q0 81 2.5 138.5t13.5 140.5t31 141t59 122.5t93 103.5t136.5 65t186.5 26q227 0 355 -121l65 101h103l-111 -168q69 -101 90 -236.5t21 -312.5q0 -62 -1.5 -107t-7 -109t-15.5 -112t-29 -105t-45 -98 t-66 -82.5t-90.5 -66.5t-118.5 -41t-150 -16q-229 0 -354 118l-65 -98h-103zM199 717q0 -315 67 -457l654 991q-100 121 -302 121q-79 0 -142.5 -19t-106.5 -50.5t-74.5 -82t-50 -102.5t-29 -123t-13.5 -134t-3 -144zM317 180q98 -119 301 -119q79 0 142.5 19t107 51t75 82 t49.5 102.5t28.5 123.5t14 134t3.5 144q0 313 -69 457z" />
<glyph unicode="&#xd9;" horiz-adv-x="1257" d="M127 717q0 143 5 322.5t10 286.5l5 108h82v-717q0 -57 1 -96.5t5 -98t11.5 -100t21.5 -93t34 -87.5t50.5 -72.5t69 -58.5t91.5 -36t116 -14q81 0 144.5 20t105 49.5t70.5 83.5t44.5 101.5t23.5 125t9.5 132t1.5 144.5v717h82q20 -396 20 -717q0 -65 -1 -106.5t-6 -108.5 t-13.5 -112.5t-26.5 -104.5t-42.5 -99t-63 -82t-87 -67t-115 -41t-146.5 -16q-90 0 -163 18t-123.5 55t-88.5 78t-60.5 103.5t-37 113t-20.5 126t-7.5 123t-1.5 120.5zM389 1812l62 62q55 -55 126.5 -121.5t115.5 -105.5l44 -39l-51 -52q-174 133 -297 256z" />
<glyph unicode="&#xda;" horiz-adv-x="1257" d="M127 717q0 143 5 322.5t10 286.5l5 108h82v-717q0 -57 1 -96.5t5 -98t11.5 -100t21.5 -93t34 -87.5t50.5 -72.5t69 -58.5t91.5 -36t116 -14q81 0 144.5 20t105 49.5t70.5 83.5t44.5 101.5t23.5 125t9.5 132t1.5 144.5v717h82q20 -396 20 -717q0 -65 -1 -106.5t-6 -108.5 t-13.5 -112.5t-26.5 -104.5t-42.5 -99t-63 -82t-87 -67t-115 -41t-146.5 -16q-90 0 -163 18t-123.5 55t-88.5 78t-60.5 103.5t-37 113t-20.5 126t-7.5 123t-1.5 120.5zM512 1608q164 143 287 266l61 -62q-55 -55 -129 -119t-121 -101l-47 -36z" />
<glyph unicode="&#xdb;" horiz-adv-x="1257" d="M127 717q0 143 5 322.5t10 286.5l5 108h82v-717q0 -57 1 -96.5t5 -98t11.5 -100t21.5 -93t34 -87.5t50.5 -72.5t69 -58.5t91.5 -36t116 -14q81 0 144.5 20t105 49.5t70.5 83.5t44.5 101.5t23.5 125t9.5 132t1.5 144.5v717h82q20 -396 20 -717q0 -65 -1 -106.5t-6 -108.5 t-13.5 -112.5t-26.5 -104.5t-42.5 -99t-63 -82t-87 -67t-115 -41t-146.5 -16q-90 0 -163 18t-123.5 55t-88.5 78t-60.5 103.5t-37 113t-20.5 126t-7.5 123t-1.5 120.5zM342 1608q16 18 44 48t103.5 101.5t139.5 116.5q64 -45 135.5 -111.5t111.5 -110.5l39 -44l-51 -52 q-92 103 -235 205q-64 -45 -123 -96.5t-86 -80.5l-27 -28z" />
<glyph unicode="&#xdc;" horiz-adv-x="1257" d="M127 717q0 143 5 322.5t10 286.5l5 108h82v-717q0 -57 1 -96.5t5 -98t11.5 -100t21.5 -93t34 -87.5t50.5 -72.5t69 -58.5t91.5 -36t116 -14q81 0 144.5 20t105 49.5t70.5 83.5t44.5 101.5t23.5 125t9.5 132t1.5 144.5v717h82q20 -396 20 -717q0 -65 -1 -106.5t-6 -108.5 t-13.5 -112.5t-26.5 -104.5t-42.5 -99t-63 -82t-87 -67t-115 -41t-146.5 -16q-90 0 -163 18t-123.5 55t-88.5 78t-60.5 103.5t-37 113t-20.5 126t-7.5 123t-1.5 120.5zM403 1690q0 31 20.5 51t51.5 20t51.5 -20t20.5 -51t-20.5 -51.5t-51.5 -20.5t-51.5 20.5t-20.5 51.5z M711 1690q0 31 20 51t51 20t51.5 -20t20.5 -51t-20.5 -51.5t-51.5 -20.5t-51 20.5t-20 51.5z" />
<glyph unicode="&#xdd;" horiz-adv-x="1034" d="M8 1434h113q41 -94 157.5 -293t241.5 -373q125 174 242 373.5t158 292.5h112q-35 -87 -180.5 -330t-280.5 -428q-1 -134 -6 -303t-9 -271l-5 -102h-92q8 376 10 676q-135 185 -280.5 428t-180.5 330zM428 1587q164 143 287 266l61 -61q-55 -55 -129 -119t-121 -101 l-47 -36z" />
<glyph unicode="&#xde;" horiz-adv-x="1064" d="M141 717q0 143 5.5 322.5t10.5 286.5l5 108h92q-4 -148 -6 -314q160 17 313 17q122 0 213 -31t144 -87t78.5 -126.5t25.5 -155.5q0 -170 -123 -284.5t-338 -114.5h-313l6 -338h-92q-21 396 -21 717zM244 717q0 -205 2 -297h315q173 0 270 90.5t97 226.5q0 142 -89.5 230 t-277.5 88h-315q-2 -123 -2 -338z" />
<glyph unicode="&#xdf;" horiz-adv-x="1153" d="M55 963v61q62 10 103 10q0 246 94 353.5t285 107.5q203 0 290.5 -100.5t87.5 -350.5v-81h-143q-246 0 -246 -205q0 -48 10 -79t39 -57t81.5 -41t136.5 -24q157 -15 232 -86t75 -215q0 -122 -83.5 -199t-244.5 -77q-82 0 -158.5 12.5t-112.5 25.5l-36 13v71 q143 -41 307 -41q101 0 163 47t62 148q0 106 -50 151.5t-175 59.5q-83 9 -141.5 26t-108 48.5t-74 85.5t-24.5 131q0 135 95.5 210.5t252.5 75.5h41q0 99 -14.5 169t-37.5 110.5t-61 63.5t-74.5 29.5t-88.5 6.5t-88.5 -6.5t-74.5 -29.5t-61.5 -63.5t-38 -110.5t-14.5 -169 v-327q0 -146 2.5 -325t5.5 -286l2 -106h-92q-20 390 -20 717v246h-103z" />
<glyph unicode="&#xe0;" horiz-adv-x="948" d="M57 276q0 35 6.5 68.5t31.5 77t66 75t117.5 54t178.5 22.5q50 0 119 -5t113 -10l44 -5q0 222 -59.5 316t-216.5 94q-77 0 -156.5 -7.5t-120.5 -15.5l-41 -8v72q144 40 318 40q74 0 133 -16.5t98 -42t67.5 -68t43.5 -83.5t24 -101t11 -107t2 -114q0 -97 -5 -225t-11 -207 l-5 -80q-127 -20 -358 -20q-102 0 -178.5 23t-117.5 55.5t-66 76t-31.5 76t-6.5 65.5zM160 276q0 -35 6 -63t25 -57.5t50.5 -49t86.5 -32.5t129 -13h276v431h-276q-74 0 -129 -13t-86.5 -33t-50.5 -50t-25 -58t-6 -62zM231 1403l62 61q55 -55 126.5 -121.5t116.5 -105.5 l44 -39l-52 -51q-174 133 -297 256z" />
<glyph unicode="&#xe1;" horiz-adv-x="948" d="M57 276q0 35 6.5 68.5t31.5 77t66 75t117.5 54t178.5 22.5q50 0 119 -5t113 -10l44 -5q0 222 -59.5 316t-216.5 94q-77 0 -156.5 -7.5t-120.5 -15.5l-41 -8v72q144 40 318 40q74 0 133 -16.5t98 -42t67.5 -68t43.5 -83.5t24 -101t11 -107t2 -114q0 -97 -5 -225t-11 -207 l-5 -80q-127 -20 -358 -20q-102 0 -178.5 23t-117.5 55.5t-66 76t-31.5 76t-6.5 65.5zM160 276q0 -35 6 -63t25 -57.5t50.5 -49t86.5 -32.5t129 -13h276v431h-276q-74 0 -129 -13t-86.5 -33t-50.5 -50t-25 -58t-6 -62zM354 1198q164 143 287 266l61 -61q-55 -55 -129 -119 t-121 -100l-46 -37z" />
<glyph unicode="&#xe2;" horiz-adv-x="948" d="M57 276q0 35 6.5 68.5t31.5 77t66 75t117.5 54t178.5 22.5q50 0 119 -5t113 -10l44 -5q0 222 -59.5 316t-216.5 94q-77 0 -156.5 -7.5t-120.5 -15.5l-41 -8v72q144 40 318 40q74 0 133 -16.5t98 -42t67.5 -68t43.5 -83.5t24 -101t11 -107t2 -114q0 -97 -5 -225t-11 -207 l-5 -80q-127 -20 -358 -20q-102 0 -178.5 23t-117.5 55.5t-66 76t-31.5 76t-6.5 65.5zM160 276q0 -35 6 -63t25 -57.5t50.5 -49t86.5 -32.5t129 -13h276v431h-276q-74 0 -129 -13t-86.5 -33t-50.5 -50t-25 -58t-6 -62zM172 1198q16 18 44 48t103.5 101.5t139.5 116.5 q64 -45 135.5 -111.5t111.5 -110.5l39 -44l-51 -51q-92 103 -235 205q-64 -45 -123 -96.5t-86 -79.5l-27 -29z" />
<glyph unicode="&#xe3;" horiz-adv-x="948" d="M57 276q0 35 6.5 68.5t31.5 77t66 75t117.5 54t178.5 22.5q50 0 119 -5t113 -10l44 -5q0 222 -59.5 316t-216.5 94q-77 0 -156.5 -7.5t-120.5 -15.5l-41 -8v72q144 40 318 40q74 0 133 -16.5t98 -42t67.5 -68t43.5 -83.5t24 -101t11 -107t2 -114q0 -97 -5 -225t-11 -207 l-5 -80q-127 -20 -358 -20q-102 0 -178.5 23t-117.5 55.5t-66 76t-31.5 76t-6.5 65.5zM160 276q0 -35 6 -63t25 -57.5t50.5 -49t86.5 -32.5t129 -13h276v431h-276q-74 0 -129 -13t-86.5 -33t-50.5 -50t-25 -58t-6 -62zM180 1188q0 7 2 19.5t12 44.5t25.5 56t48.5 44t76 20 q44 0 92.5 -31t89 -61.5t64.5 -30.5q36 0 59 25.5t28 51.5l5 26h72q0 -8 -2 -20t-12 -44t-25.5 -56.5t-48.5 -44.5t-76 -20q-34 0 -72.5 19t-66 42.5t-57.5 42.5t-50 19q-36 0 -59 -25.5t-28 -50.5l-5 -26h-72z" />
<glyph unicode="&#xe4;" horiz-adv-x="948" d="M57 276q0 35 6.5 68.5t31.5 77t66 75t117.5 54t178.5 22.5q50 0 119 -5t113 -10l44 -5q0 222 -59.5 316t-216.5 94q-77 0 -156.5 -7.5t-120.5 -15.5l-41 -8v72q144 40 318 40q74 0 133 -16.5t98 -42t67.5 -68t43.5 -83.5t24 -101t11 -107t2 -114q0 -97 -5 -225t-11 -207 l-5 -80q-127 -20 -358 -20q-102 0 -178.5 23t-117.5 55.5t-66 76t-31.5 76t-6.5 65.5zM160 276q0 -35 6 -63t25 -57.5t50.5 -49t86.5 -32.5t129 -13h276v431h-276q-74 0 -129 -13t-86.5 -33t-50.5 -50t-25 -58t-6 -62zM231 1280q0 31 20.5 51.5t51.5 20.5t51.5 -20.5 t20.5 -51.5t-20.5 -51.5t-51.5 -20.5t-51.5 20.5t-20.5 51.5zM539 1280q0 31 20 51.5t51 20.5t51.5 -20.5t20.5 -51.5t-20.5 -51.5t-51.5 -20.5t-51 20.5t-20 51.5z" />
<glyph unicode="&#xe5;" horiz-adv-x="948" d="M57 276q0 35 6.5 68.5t31.5 77t66 75t117.5 54t178.5 22.5q50 0 119 -5t113 -10l44 -5q0 222 -59.5 316t-216.5 94q-77 0 -156.5 -7.5t-120.5 -15.5l-41 -8v72q144 40 318 40q74 0 133 -16.5t98 -42t67.5 -68t43.5 -83.5t24 -101t11 -107t2 -114q0 -97 -5 -225t-11 -207 l-5 -80q-127 -20 -358 -20q-102 0 -178.5 23t-117.5 55.5t-66 76t-31.5 76t-6.5 65.5zM160 276q0 -35 6 -63t25 -57.5t50.5 -49t86.5 -32.5t129 -13h276v431h-276q-74 0 -129 -13t-86.5 -33t-50.5 -50t-25 -58t-6 -62zM272 1331q0 77 54 131t131 54q76 0 130 -54t54 -131 t-53.5 -130.5t-130.5 -53.5t-131 54t-54 130zM354 1331q0 -47 29 -79.5t74 -32.5t73.5 32.5t28.5 79.5t-28.5 80t-73.5 33t-74 -33t-29 -80z" />
<glyph unicode="&#xe6;" horiz-adv-x="1595" d="M57 276q0 35 6.5 68.5t31.5 77t66 75t117.5 54t178.5 22.5q50 0 119 -5t113 -10l44 -5q0 222 -59.5 316t-216.5 94q-77 0 -156.5 -7.5t-120.5 -15.5l-41 -8v72q144 40 318 40q256 0 334 -192q93 192 362 192q96 0 168.5 -24t111.5 -57.5t62.5 -80.5t30 -82.5t6.5 -72.5 q0 -29 -5 -56t-18 -60.5t-40 -60t-67 -50t-104 -36.5t-145 -13q-43 0 -122 5t-137 10l-58 5v-10q0 -400 317 -400q77 0 156.5 10.5t120.5 20.5l40 10v-71q-14 -6 -39.5 -14.5t-108 -22.5t-169.5 -14q-225 0 -330 151l-8 -131q-127 -20 -358 -20q-102 0 -178.5 23 t-117.5 55.5t-66 76t-31.5 76t-6.5 65.5zM160 276q0 -35 6 -63t25 -57.5t50.5 -49t86.5 -32.5t129 -13h276v431h-276q-74 0 -129 -13t-86.5 -33t-50.5 -50t-25 -58t-6 -62zM836 532h317q68 0 119 12.5t80.5 32t47.5 46.5t24 51.5t6 52.5t-6 56t-24 62t-47 59t-81 42t-119 17 q-79 0 -137 -23.5t-91.5 -60t-54 -92t-27 -107.5t-7.5 -117v-31z" />
<glyph unicode="&#xe7;" horiz-adv-x="851" d="M82 512q0 532 430 532q73 0 144.5 -13t107.5 -25l35 -13v-71q-123 41 -287 41q-70 0 -124 -16.5t-89 -48.5t-58.5 -71.5t-35.5 -93.5t-16.5 -105t-4.5 -116q0 -78 6.5 -138t26.5 -121.5t54 -101.5t92.5 -65t138.5 -25q77 0 151.5 10.5t110.5 20.5l35 10v-71 q-104 -43 -256 -49l-51 -115q31 10 92 10q79 0 131.5 -42.5t52.5 -141.5q0 -90 -63 -137.5t-173 -47.5q-51 0 -102 14.5t-76 29.5l-26 14v65q10 -6 27.5 -14.5t71 -22.5t105.5 -14q66 0 105 27.5t39 85.5q0 64 -37.5 88t-106.5 24h-143q7 45 53 179q-360 34 -360 528z" />
<glyph unicode="&#xe8;" horiz-adv-x="946" d="M84 512q0 59 3 107.5t14 105.5t29 100.5t50 86t75 70.5t106.5 45t142.5 17q96 0 168.5 -24t111.5 -57.5t62.5 -80.5t30 -82.5t6.5 -72.5q0 -29 -5 -56t-18 -60.5t-40 -60t-67 -50t-104 -36.5t-145 -13q-43 0 -122.5 5t-137.5 10l-58 5q0 -62 6.5 -114t26.5 -109 t53.5 -96.5t93 -65t138.5 -25.5q77 0 156.5 10.5t119.5 20.5l41 10v-71q-14 -6 -39.5 -14.5t-108 -22.5t-169.5 -14q-420 0 -420 532zM186 532h318q68 0 119 12.5t80.5 32t47.5 47t23.5 51.5t5.5 52t-5.5 56t-24 62t-47 59t-80.5 42t-119 17q-83 0 -143 -26t-93 -65.5 t-52.5 -100.5t-24.5 -114.5t-5 -124.5zM266 1403l62 61q55 -55 126.5 -121.5t115.5 -105.5l44 -39l-51 -51q-174 133 -297 256z" />
<glyph unicode="&#xe9;" horiz-adv-x="946" d="M84 512q0 59 3 107.5t14 105.5t29 100.5t50 86t75 70.5t106.5 45t142.5 17q96 0 168.5 -24t111.5 -57.5t62.5 -80.5t30 -82.5t6.5 -72.5q0 -29 -5 -56t-18 -60.5t-40 -60t-67 -50t-104 -36.5t-145 -13q-43 0 -122.5 5t-137.5 10l-58 5q0 -62 6.5 -114t26.5 -109 t53.5 -96.5t93 -65t138.5 -25.5q77 0 156.5 10.5t119.5 20.5l41 10v-71q-14 -6 -39.5 -14.5t-108 -22.5t-169.5 -14q-420 0 -420 532zM186 532h318q68 0 119 12.5t80.5 32t47.5 47t23.5 51.5t5.5 52t-5.5 56t-24 62t-47 59t-80.5 42t-119 17q-83 0 -143 -26t-93 -65.5 t-52.5 -100.5t-24.5 -114.5t-5 -124.5zM389 1198q164 143 287 266l61 -61q-55 -55 -129 -119t-121 -100l-47 -37z" />
<glyph unicode="&#xea;" horiz-adv-x="946" d="M84 512q0 59 3 107.5t14 105.5t29 100.5t50 86t75 70.5t106.5 45t142.5 17q96 0 168.5 -24t111.5 -57.5t62.5 -80.5t30 -82.5t6.5 -72.5q0 -29 -5 -56t-18 -60.5t-40 -60t-67 -50t-104 -36.5t-145 -13q-43 0 -122.5 5t-137.5 10l-58 5q0 -62 6.5 -114t26.5 -109 t53.5 -96.5t93 -65t138.5 -25.5q77 0 156.5 10.5t119.5 20.5l41 10v-71q-14 -6 -39.5 -14.5t-108 -22.5t-169.5 -14q-420 0 -420 532zM186 532h318q68 0 119 12.5t80.5 32t47.5 47t23.5 51.5t5.5 52t-5.5 56t-24 62t-47 59t-80.5 42t-119 17q-83 0 -143 -26t-93 -65.5 t-52.5 -100.5t-24.5 -114.5t-5 -124.5zM215 1198q16 18 44 48t103.5 101.5t139.5 116.5q64 -45 135.5 -111.5t110.5 -110.5l40 -44l-51 -51q-92 103 -235 205q-64 -45 -123 -96.5t-86 -79.5l-27 -29z" />
<glyph unicode="&#xeb;" horiz-adv-x="946" d="M84 512q0 59 3 107.5t14 105.5t29 100.5t50 86t75 70.5t106.5 45t142.5 17q96 0 168.5 -24t111.5 -57.5t62.5 -80.5t30 -82.5t6.5 -72.5q0 -29 -5 -56t-18 -60.5t-40 -60t-67 -50t-104 -36.5t-145 -13q-43 0 -122.5 5t-137.5 10l-58 5q0 -62 6.5 -114t26.5 -109 t53.5 -96.5t93 -65t138.5 -25.5q77 0 156.5 10.5t119.5 20.5l41 10v-71q-14 -6 -39.5 -14.5t-108 -22.5t-169.5 -14q-420 0 -420 532zM186 532h318q68 0 119 12.5t80.5 32t47.5 47t23.5 51.5t5.5 52t-5.5 56t-24 62t-47 59t-80.5 42t-119 17q-83 0 -143 -26t-93 -65.5 t-52.5 -100.5t-24.5 -114.5t-5 -124.5zM276 1280q0 31 20.5 51.5t51.5 20.5t51.5 -20.5t20.5 -51.5t-20.5 -51.5t-51.5 -20.5t-51.5 20.5t-20.5 51.5zM584 1280q0 31 20 51.5t51 20.5t51.5 -20.5t20.5 -51.5t-20.5 -51.5t-51.5 -20.5t-51 20.5t-20 51.5z" />
<glyph unicode="&#xec;" horiz-adv-x="354" d="M-31 1403l62 61q55 -55 126.5 -121.5t115.5 -105.5l44 -39l-51 -51q-174 133 -297 256zM123 737l4 287h98v-1024h-82q-20 410 -20 737z" />
<glyph unicode="&#xed;" horiz-adv-x="354" d="M53 1198q164 143 287 266l61 -61q-55 -55 -129 -119t-121 -100l-47 -37zM123 737l4 287h98v-1024h-82q-20 410 -20 737z" />
<glyph unicode="&#xee;" horiz-adv-x="354" d="M12 1217v108q85 81 164 139q76 -55 164 -139v-106q-82 74 -164 133q-91 -66 -164 -135zM123 737l4 287h98v-1024h-82q-20 410 -20 737z" />
<glyph unicode="&#xef;" horiz-adv-x="354" d="M-10 1280q0 31 20 51.5t51 20.5t51.5 -20.5t20.5 -51.5t-20.5 -51.5t-51.5 -20.5t-51 20.5t-20 51.5zM123 737l4 287h98v-1024h-82q-20 410 -20 737zM215 1280q0 31 20.5 51.5t51.5 20.5t51 -20.5t20 -51.5t-20 -51.5t-51 -20.5t-51.5 20.5t-20.5 51.5z" />
<glyph unicode="&#xf0;" horiz-adv-x="1153" d="M55 410q0 85 29 154.5t87.5 122.5t154 82.5t221.5 29.5q71 0 173.5 -5.5t169.5 -10.5l66 -5q0 239 -45 365l-221 -99v82l189 84q-119 162 -332 162q-107 0 -204 -10t-141 -20l-44 -11v62q18 7 50 17t133.5 27t205.5 17q152 0 261 -52.5t165 -152.5l209 92v-81l-178 -78 q55 -141 55 -391v-142q0 -54 -1.5 -95.5t-7 -99t-15.5 -101.5t-29 -95.5t-45 -89.5t-65 -75t-88 -60.5t-115.5 -38t-145.5 -14.5q-111 0 -198.5 25.5t-141.5 67t-89 99t-49 115.5t-14 123zM158 410q0 -349 389 -349q84 0 149 19.5t107.5 48t72.5 82.5t45.5 100t23.5 125 t9.5 133.5t1.5 147.5h-409q-205 0 -297 -84t-92 -223z" />
<glyph unicode="&#xf1;" horiz-adv-x="1069" d="M123 737q0 96 1.5 168t3.5 95l1 24h66q14 -41 30 -164q52 88 125 136t193 48q420 0 420 -532q0 -68 -5.5 -196t-10.5 -222l-5 -94h-82v512q0 79 -6 138.5t-26 121t-54 101.5t-92.5 65t-138.5 25q-89 0 -153 -34.5t-99 -94.5t-50.5 -129.5t-15.5 -151.5v-553h-82 q-20 410 -20 737zM238 1188q0 4 1 10.5t4.5 25.5t10 36.5t19 39t29 36.5t42.5 25.5t57 10.5q44 0 92.5 -31t89 -61.5t64.5 -30.5q36 0 59 25.5t28 51.5l5 26h72q0 -8 -2 -20t-12 -44t-25.5 -56.5t-48.5 -44.5t-76 -20q-34 0 -72.5 19t-66 42.5t-57.5 42.5t-50 19 q-36 0 -59 -25.5t-28 -50.5l-5 -26h-71z" />
<glyph unicode="&#xf2;" d="M82 512q0 532 420 532t420 -532t-420 -532t-420 532zM184 512q0 -78 6.5 -138t26.5 -121.5t54 -101.5t92.5 -65t138.5 -25t138.5 25t92.5 65t54 101.5t26 121t6 138.5t-6 138.5t-26 121t-54 101.5t-92.5 65t-138.5 25t-138.5 -25t-92.5 -65t-54 -101.5t-26.5 -121.5 t-6.5 -138zM266 1403l62 61q55 -55 126.5 -121.5t115.5 -105.5l44 -39l-51 -51q-174 133 -297 256z" />
<glyph unicode="&#xf3;" d="M82 512q0 532 420 532t420 -532t-420 -532t-420 532zM184 512q0 -78 6.5 -138t26.5 -121.5t54 -101.5t92.5 -65t138.5 -25t138.5 25t92.5 65t54 101.5t26 121t6 138.5t-6 138.5t-26 121t-54 101.5t-92.5 65t-138.5 25t-138.5 -25t-92.5 -65t-54 -101.5t-26.5 -121.5 t-6.5 -138zM389 1198q164 143 287 266l61 -61q-55 -55 -129 -119t-121 -100l-47 -37z" />
<glyph unicode="&#xf4;" d="M82 512q0 532 420 532t420 -532t-420 -532t-420 532zM184 512q0 -78 6.5 -138t26.5 -121.5t54 -101.5t92.5 -65t138.5 -25t138.5 25t92.5 65t54 101.5t26 121t6 138.5t-6 138.5t-26 121t-54 101.5t-92.5 65t-138.5 25t-138.5 -25t-92.5 -65t-54 -101.5t-26.5 -121.5 t-6.5 -138zM215 1198q16 18 44 48t103.5 101.5t139.5 116.5q64 -45 135.5 -111.5t110.5 -110.5l40 -44l-51 -51q-92 103 -235 205q-64 -45 -123 -96.5t-86 -79.5l-27 -29z" />
<glyph unicode="&#xf5;" d="M82 512q0 532 420 532t420 -532t-420 -532t-420 532zM184 512q0 -78 6.5 -138t26.5 -121.5t54 -101.5t92.5 -65t138.5 -25t138.5 25t92.5 65t54 101.5t26 121t6 138.5t-6 138.5t-26 121t-54 101.5t-92.5 65t-138.5 25t-138.5 -25t-92.5 -65t-54 -101.5t-26.5 -121.5 t-6.5 -138zM225 1188q0 7 2 19.5t12 44.5t25.5 56t48.5 44t76 20q44 0 92.5 -31t89 -61.5t64.5 -30.5q36 0 59 25.5t28 51.5l5 26h72q0 -8 -2 -20t-12 -44t-25.5 -56.5t-48.5 -44.5t-76 -20q-34 0 -72.5 19t-66 42.5t-57.5 42.5t-50 19q-36 0 -59 -25.5t-28 -50.5l-5 -26 h-72z" />
<glyph unicode="&#xf6;" d="M82 512q0 532 420 532t420 -532t-420 -532t-420 532zM184 512q0 -78 6.5 -138t26.5 -121.5t54 -101.5t92.5 -65t138.5 -25t138.5 25t92.5 65t54 101.5t26 121t6 138.5t-6 138.5t-26 121t-54 101.5t-92.5 65t-138.5 25t-138.5 -25t-92.5 -65t-54 -101.5t-26.5 -121.5 t-6.5 -138zM276 1280q0 31 20.5 51.5t51.5 20.5t51.5 -20.5t20.5 -51.5t-20.5 -51.5t-51.5 -20.5t-51.5 20.5t-20.5 51.5zM584 1280q0 31 20 51.5t51 20.5t51.5 -20.5t20.5 -51.5t-20.5 -51.5t-51.5 -20.5t-51 20.5t-20 51.5z" />
<glyph unicode="&#xf7;" horiz-adv-x="1228" d="M102 584v82h1024v-82h-1024zM543 358q0 31 20 51.5t51 20.5t51.5 -20.5t20.5 -51.5t-20.5 -51t-51.5 -20t-51 20t-20 51zM543 891q0 31 20 51.5t51 20.5t51.5 -20.5t20.5 -51.5t-20.5 -51.5t-51.5 -20.5t-51 20.5t-20 51.5z" />
<glyph unicode="&#xf8;" d="M82 0l94 127q-94 130 -94 385q0 532 420 532q177 0 280 -96l58 76h102l-104 -141q84 -132 84 -371q0 -532 -420 -532q-172 0 -271 86l-47 -66h-102zM184 512q0 -207 49 -305l496 667q-76 89 -227 89q-80 0 -138.5 -25t-92.5 -65t-54 -101.5t-26.5 -121.5t-6.5 -138z M285 137q76 -76 217 -76q80 0 138.5 25t92.5 65t54 101.5t26 121t6 138.5q0 191 -43 289z" />
<glyph unicode="&#xf9;" horiz-adv-x="1069" d="M106 512q0 68 5 196t11 222l5 94h82v-512q0 -79 6 -138.5t26 -121t54 -101.5t92.5 -65t138.5 -25q88 0 152.5 34.5t99.5 94.5t50.5 129.5t15.5 151.5v553h82q20 -410 20 -737q0 -96 -1.5 -168t-2.5 -95l-2 -24h-66q-14 41 -30 164q-52 -88 -125 -136t-193 -48 q-420 0 -420 532zM281 1403l61 61q55 -55 126.5 -121.5t115.5 -105.5l45 -39l-51 -51q-174 133 -297 256z" />
<glyph unicode="&#xfa;" horiz-adv-x="1069" d="M106 512q0 68 5 196t11 222l5 94h82v-512q0 -79 6 -138.5t26 -121t54 -101.5t92.5 -65t138.5 -25q88 0 152.5 34.5t99.5 94.5t50.5 129.5t15.5 151.5v553h82q20 -410 20 -737q0 -96 -1.5 -168t-2.5 -95l-2 -24h-66q-14 41 -30 164q-52 -88 -125 -136t-193 -48 q-420 0 -420 532zM424 1198q164 143 287 266l61 -61q-55 -55 -129 -119t-121 -100l-47 -37z" />
<glyph unicode="&#xfb;" horiz-adv-x="1069" d="M106 512q0 68 5 196t11 222l5 94h82v-512q0 -79 6 -138.5t26 -121t54 -101.5t92.5 -65t138.5 -25q88 0 152.5 34.5t99.5 94.5t50.5 129.5t15.5 151.5v553h82q20 -410 20 -737q0 -96 -1.5 -168t-2.5 -95l-2 -24h-66q-14 41 -30 164q-52 -88 -125 -136t-193 -48 q-420 0 -420 532zM240 1198q16 18 43.5 48t103 101.5t139.5 116.5q64 -45 135.5 -111.5t111.5 -110.5l40 -44l-51 -51q-93 103 -236 205q-64 -45 -122.5 -96.5t-85.5 -79.5l-27 -29z" />
<glyph unicode="&#xfc;" horiz-adv-x="1069" d="M106 512q0 68 5 196t11 222l5 94h82v-512q0 -79 6 -138.5t26 -121t54 -101.5t92.5 -65t138.5 -25q88 0 152.5 34.5t99.5 94.5t50.5 129.5t15.5 151.5v553h82q20 -410 20 -737q0 -96 -1.5 -168t-2.5 -95l-2 -24h-66q-14 41 -30 164q-52 -88 -125 -136t-193 -48 q-420 0 -420 532zM301 1280q0 31 20.5 51.5t51.5 20.5t51 -20.5t20 -51.5t-20 -51.5t-51 -20.5t-51.5 20.5t-20.5 51.5zM608 1280q0 31 20.5 51.5t51.5 20.5t51.5 -20.5t20.5 -51.5t-20.5 -51.5t-51.5 -20.5t-51.5 20.5t-20.5 51.5z" />
<glyph unicode="&#xfd;" horiz-adv-x="1071" d="M109 512q0 68 5 196t10 222l5 94h82v-512q0 -51 1.5 -87.5t6 -82t14.5 -77.5t25 -66.5t39 -57.5t56 -42.5t76 -28.5t99 -9q318 0 318 412v551h82q20 -390 20 -717q0 -104 -2 -179.5t-7.5 -154.5t-16 -133.5t-27 -109t-41 -90t-57.5 -67t-77 -48.5t-99 -27t-123 -10 q-55 0 -111.5 8t-85.5 16l-29 7v71q103 -20 226 -20q51 0 88.5 4t73.5 15.5t61 31t47 51t35.5 75t24 104.5t14.5 137.5t4 175.5q-88 -184 -318 -184q-83 0 -149 19.5t-109.5 49.5t-74.5 77t-47.5 90t-25.5 102t-11 99.5t-2 94.5zM426 1198q164 143 287 266l61 -61 q-55 -55 -129 -119t-121 -100l-47 -37z" />
<glyph unicode="&#xfe;" horiz-adv-x="1048" d="M125 512q0 228 10.5 484t20.5 398l10 142h82q-15 -314 -21 -655q97 163 318 163q83 0 149 -19.5t109 -49.5t74.5 -76.5t48 -90t26 -102t11.5 -99.5t2 -95t-2 -95t-11.5 -99.5t-25.5 -101.5t-47.5 -90t-74.5 -77t-109.5 -49.5t-149.5 -19.5q-221 0 -318 163q3 -152 8 -316 t9 -251l4 -88h-82q-41 513 -41 1024zM227 512q0 -60 2 -103t9.5 -93.5t20.5 -85t37 -69t57 -55t81.5 -33t110.5 -12.5q55 0 99 9t76 28.5t56 42.5t39 57.5t25 66.5t14.5 77.5t6 82t1.5 87.5t-1.5 87.5t-6 82t-14.5 77.5t-25 66.5t-39 57.5t-56 42.5t-76 28.5t-99 9 q-80 0 -137.5 -22t-92 -59t-54.5 -97t-27 -123t-7 -150z" />
<glyph unicode="&#xff;" horiz-adv-x="1071" d="M109 512q0 68 5 196t10 222l5 94h82v-512q0 -51 1.5 -87.5t6 -82t14.5 -77.5t25 -66.5t39 -57.5t56 -42.5t76 -28.5t99 -9q318 0 318 412v551h82q20 -390 20 -717q0 -104 -2 -179.5t-7.5 -154.5t-16 -133.5t-27 -109t-41 -90t-57.5 -67t-77 -48.5t-99 -27t-123 -10 q-55 0 -111.5 8t-85.5 16l-29 7v71q103 -20 226 -20q51 0 88.5 4t73.5 15.5t61 31t47 51t35.5 75t24 104.5t14.5 137.5t4 175.5q-88 -184 -318 -184q-83 0 -149 19.5t-109.5 49.5t-74.5 77t-47.5 90t-25.5 102t-11 99.5t-2 94.5zM303 1280q0 31 20.5 51.5t51.5 20.5 t51 -20.5t20 -51.5t-20 -51.5t-51 -20.5t-51.5 20.5t-20.5 51.5zM610 1280q0 31 20.5 51.5t51.5 20.5t51.5 -20.5t20.5 -51.5t-20.5 -51.5t-51.5 -20.5t-51.5 20.5t-20.5 51.5z" />
<glyph unicode="&#x152;" horiz-adv-x="1949" d="M96 717q0 81 2.5 138.5t13.5 140.5t31 141t59 122.5t93 103.5t136.5 65t186.5 26q309 0 431 -219l10 199q194 20 409 20q96 0 198.5 -5t157.5 -10l54 -5v-72q-193 10 -410 10h-327v-614h655v-82h-655q0 -118 3 -272t6 -248l3 -95h315q96 0 198.5 2.5t157.5 5.5l54 3v-72 q-195 -20 -410 -20q-86 0 -188 5t-162 10l-59 5q-6 80 -10 197q-123 -217 -431 -217q-104 0 -186.5 26t-136.5 65t-93 103.5t-59 122.5t-31 141t-13.5 140.5t-2.5 138.5zM199 717q0 -62 2 -112t7.5 -107.5t15 -102t25.5 -91.5t38 -82t54 -66.5t71.5 -51.5t91.5 -31.5 t114 -11.5q75 0 135.5 17.5t103.5 47.5t75 77t51 99.5t31 122.5t16 138.5t4 153.5q0 122 -8.5 212t-35 177.5t-71.5 143t-120.5 89t-180.5 33.5q-79 0 -142.5 -19t-106.5 -50.5t-74.5 -82t-50 -102.5t-29 -123t-13.5 -134t-3 -144z" />
<glyph unicode="&#x153;" horiz-adv-x="1681" d="M82 512q0 532 420 532q265 0 364 -217q89 217 373 217q96 0 168.5 -24t111.5 -57.5t62.5 -80.5t30 -82.5t6.5 -72.5q0 -29 -5 -56t-18 -60.5t-40 -60t-67 -50t-104 -36.5t-145 -13q-43 0 -122 5t-137 10l-58 5q0 -62 6 -114t26.5 -109t53.5 -96.5t92.5 -65t138.5 -25.5 q77 0 156.5 10.5t120.5 20.5l40 10v-71q-14 -6 -39.5 -14.5t-108 -22.5t-169.5 -14q-273 0 -369 223q-96 -223 -368 -223q-420 0 -420 532zM184 512q0 -78 6.5 -138t26.5 -121.5t54 -101.5t92.5 -65t138.5 -25t138.5 25t92.5 65t54 101.5t26 121t6 138.5q0 82 -7.5 145.5 t-28.5 123t-56 98t-91.5 61.5t-133.5 23q-80 0 -138.5 -25t-92.5 -65t-54 -101.5t-26.5 -121.5t-6.5 -138zM922 532h317q68 0 119 12.5t80.5 32t47.5 46.5t24 51.5t6 52.5t-6 56t-24 62t-47 59t-81 42t-119 17q-82 0 -141.5 -25.5t-92.5 -64t-52.5 -99t-25 -115t-5.5 -127.5 z" />
<glyph unicode="&#x178;" horiz-adv-x="1034" d="M8 1434h113q41 -94 157.5 -293t241.5 -373q125 174 242 373.5t158 292.5h112q-35 -87 -180.5 -330t-280.5 -428q-1 -134 -6 -303t-9 -271l-5 -102h-92q8 376 10 676q-135 185 -280.5 428t-180.5 330zM295 1669q0 31 20.5 51.5t51.5 20.5t51 -20.5t20 -51.5t-20 -51.5 t-51 -20.5t-51.5 20.5t-20.5 51.5zM602 1669q0 31 20.5 51.5t51.5 20.5t51 -20.5t20 -51.5t-20 -51.5t-51 -20.5t-51.5 20.5t-20.5 51.5z" />
<glyph unicode="&#x2c6;" horiz-adv-x="737" d="M82 1198q16 18 44 48t103.5 101.5t139.5 116.5q64 -45 135.5 -111.5t111.5 -110.5l39 -44l-51 -51q-92 103 -235 205q-64 -45 -123 -96.5t-86 -79.5l-27 -29z" />
<glyph unicode="&#x2dc;" horiz-adv-x="737" d="M82 1188q0 7 2 19.5t12 44.5t25.5 56t48.5 44t76 20q44 0 92.5 -31t89 -61.5t64.5 -30.5q36 0 59 25.5t28 51.5l5 26h71q0 -4 -1 -10.5t-4.5 -26t-10 -37t-19 -38.5t-29 -36.5t-42.5 -26t-57 -10.5q-34 0 -72.5 19t-66 42.5t-57.5 42.5t-50 19q-36 0 -59 -25.5t-28 -50.5 l-5 -26h-72z" />
<glyph unicode="&#x2000;" horiz-adv-x="962" />
<glyph unicode="&#x2001;" horiz-adv-x="1925" />
<glyph unicode="&#x2002;" horiz-adv-x="962" />
<glyph unicode="&#x2003;" horiz-adv-x="1925" />
<glyph unicode="&#x2004;" horiz-adv-x="641" />
<glyph unicode="&#x2005;" horiz-adv-x="481" />
<glyph unicode="&#x2006;" horiz-adv-x="320" />
<glyph unicode="&#x2007;" horiz-adv-x="320" />
<glyph unicode="&#x2008;" horiz-adv-x="240" />
<glyph unicode="&#x2009;" horiz-adv-x="385" />
<glyph unicode="&#x200a;" horiz-adv-x="106" />
<glyph unicode="&#x2010;" horiz-adv-x="704" d="M106 584v82h492v-82h-492z" />
<glyph unicode="&#x2011;" horiz-adv-x="704" d="M106 584v82h492v-82h-492z" />
<glyph unicode="&#x2012;" horiz-adv-x="704" d="M106 584v82h492v-82h-492z" />
<glyph unicode="&#x2013;" horiz-adv-x="1032" d="M106 584v82h820v-82h-820z" />
<glyph unicode="&#x2014;" horiz-adv-x="1851" d="M106 584v82h1639v-82h-1639z" />
<glyph unicode="&#x2018;" horiz-adv-x="327" d="M102 1024q0 64 10.5 166.5t20.5 173.5l10 70h82q-20 -267 -20 -410h-103z" />
<glyph unicode="&#x2019;" horiz-adv-x="325" d="M104 1024q21 267 21 410h102q0 -64 -10.5 -166.5t-20.5 -173.5l-10 -70h-82z" />
<glyph unicode="&#x201a;" horiz-adv-x="346" d="M104 -205q21 267 21 410h102q0 -64 -10.5 -166.5t-20.5 -172.5l-10 -71h-82z" />
<glyph unicode="&#x201c;" horiz-adv-x="593" d="M102 1024q0 64 10.5 166.5t20.5 173.5l10 70h82q-20 -267 -20 -410h-103zM369 1024q0 64 10.5 166.5t20.5 173.5l10 70h82q-21 -267 -21 -410h-102z" />
<glyph unicode="&#x201d;" horiz-adv-x="591" d="M104 1024q21 267 21 410h102q0 -64 -10.5 -166.5t-20.5 -173.5l-10 -70h-82zM371 1024q20 267 20 410h103q0 -64 -10 -166.5t-20 -173.5l-11 -70h-82z" />
<glyph unicode="&#x201e;" horiz-adv-x="612" d="M104 -205q21 267 21 410h102q0 -64 -10.5 -166.5t-20.5 -172.5l-10 -71h-82zM371 -205q20 267 20 410h103q0 -64 -10 -166.5t-20 -172.5l-11 -71h-82z" />
<glyph unicode="&#x2022;" horiz-adv-x="454" d="M115 614q0 47 32.5 80t79.5 33t80 -33t33 -80t-33 -79.5t-80 -32.5t-79.5 32.5t-32.5 79.5z" />
<glyph unicode="&#x2026;" horiz-adv-x="937" d="M111 61q0 31 20 51.5t51 20.5t51.5 -20.5t20.5 -51.5t-20.5 -51t-51.5 -20t-51 20t-20 51zM397 61q0 31 20.5 51.5t51.5 20.5t51.5 -20.5t20.5 -51.5t-20.5 -51t-51.5 -20t-51.5 20t-20.5 51zM684 61q0 31 20.5 51.5t51.5 20.5t51 -20.5t20 -51.5t-20 -51t-51 -20 t-51.5 20t-20.5 51z" />
<glyph unicode="&#x202f;" horiz-adv-x="385" />
<glyph unicode="&#x2039;" horiz-adv-x="638" d="M63 512q0 14 2.5 29t5.5 23l3 9q24 24 65.5 63.5t152.5 133t202 152.5l51 -52q-188 -146 -400 -358q212 -212 400 -358l-51 -52q-91 59 -196 146.5t-164 145.5l-60 57q-11 30 -11 61z" />
<glyph unicode="&#x203a;" horiz-adv-x="638" d="M94 154q188 146 400 358q-212 212 -400 358l51 52q91 -59 196 -146.5t165 -145.5l59 -57q10 -30 10 -61q0 -14 -2.5 -29t-4.5 -23l-3 -9q-24 -24 -65.5 -63.5t-152.5 -133t-202 -152.5z" />
<glyph unicode="&#x205f;" horiz-adv-x="481" />
<glyph unicode="&#x20ac;" horiz-adv-x="1208" d="M61 512v82h146q-2 39 -2 123q0 82 2 123h-146v82h152q9 94 27.5 168.5t56.5 144.5t93.5 116.5t141 74.5t195.5 28q114 0 213.5 -20.5t142.5 -41.5l43 -20v-72q-16 8 -47 20t-134.5 32t-217.5 20q-86 0 -153 -23t-111 -62t-75.5 -98t-47.5 -123t-25 -144h648v-82h-654 q-2 -41 -2 -123q0 -84 2 -123h654v-82h-648q9 -80 25 -144t47.5 -123t75.5 -98.5t111 -62.5t153 -23q123 0 222.5 13t138.5 26l38 13v-72q-16 -7 -47 -17t-134.5 -27t-217.5 -17q-131 0 -226 37.5t-153.5 110t-90 165.5t-44.5 219h-152z" />
<glyph unicode="&#x2122;" horiz-adv-x="1413" d="M59 1372v62q133 10 246 10q50 0 111.5 -2.5t97.5 -5.5l37 -2v-68q-115 6 -205 6v-297l6 -358h-78q-10 204 -10 358v297h-205zM643 1075q0 68 2.5 158t4.5 145l3 56h123q76 -205 117 -342l88 -293l88 293q18 61 47.5 146.5t49.5 140.5l20 55h123q10 -205 10 -359 q0 -68 -2.5 -157.5t-4.5 -145.5l-3 -55h-76q4 204 4 358v277l-201 -635h-110q-82 265 -201 635v-277l4 -358h-76q-10 204 -10 358z" />
</font>
</defs>
</svg>
